<?xml version="1.0" standalone="no"?>
<!DOCTYPE svg PUBLIC "-//W3C//DTD SVG 20010904//EN"
 "http://www.w3.org/TR/2001/REC-SVG-20010904/DTD/svg10.dtd">
<svg version="1.0" xmlns="http://www.w3.org/2000/svg"
 width="1024.000000pt" height="1024.000000pt" viewBox="0 0 1024.000000 1024.000000"
 preserveAspectRatio="xMidYMid meet">
<metadata>
Created by potrace 1.14, written by Peter Selinger 2001-2017
</metadata>
<g transform="translate(0.000000,1024.000000) scale(0.100000,-0.100000)"
fill="#000000" stroke="none">
<path d="M0 5120 l0 -5120 5120 0 5120 0 0 4740 0 4740 -26 -4 c-34 -6 -76
-34 -69 -46 3 -5 -4 -7 -15 -5 -11 2 -20 -2 -20 -8 0 -8 -3 -8 -9 1 -11 18
-30 -5 -25 -31 1 -11 -1 -16 -4 -12 -4 4 -7 12 -7 18 -1 7 -5 11 -11 10 -11
-2 -11 37 0 55 4 7 5 16 2 21 -3 4 1 17 9 27 8 10 15 27 15 37 0 9 4 17 8 17
5 0 9 7 9 16 0 14 -2 14 -14 -2 -7 -10 -13 -24 -13 -32 0 -7 -4 -10 -10 -7 -6
4 -7 -1 -3 -11 4 -11 3 -15 -5 -10 -6 3 -13 2 -17 -4 -3 -5 -10 -10 -14 -10
-10 0 -8 392 2 408 5 7 3 18 -6 26 -15 16 -17 161 -3 205 6 16 5 21 -3 17 -6
-4 -11 -2 -11 3 0 6 4 11 10 11 8 0 40 51 40 65 0 3 -630 5 -1400 5 l-1399 0
-11 -40 c-23 -90 -29 -116 -34 -145 -12 -66 -18 -85 -26 -80 -12 7 -2 117 15
186 18 70 19 87 4 72 -10 -10 -16 -41 -18 -91 -1 -7 -6 -10 -12 -6 -7 4 -9 0
-5 -12 3 -11 1 -26 -4 -34 -8 -12 -10 -12 -11 5 l0 20 -10 -20 c-6 -14 -7 -8
-3 21 3 23 1 45 -4 48 -6 3 -8 -2 -5 -14 3 -12 0 -20 -6 -20 -7 0 -9 -5 -5
-11 7 -12 -12 -29 -33 -29 -7 0 -21 9 -32 21 -16 17 -23 19 -40 10 -16 -9 -21
-9 -21 2 0 7 5 18 12 25 9 9 9 12 0 12 -9 0 -10 12 -6 40 l7 40 -1943 0 -1942
0 6 -282 c3 -156 6 -364 6 -463 1 -219 7 -295 26 -295 9 0 14 -11 13 -32 0
-18 -3 -27 -6 -20 -10 25 -23 11 -22 -25 1 -21 3 -30 6 -20 2 9 10 17 17 17
10 0 12 -20 9 -80 -4 -83 13 -115 20 -37 2 30 4 23 5 -25 2 -57 -1 -68 -14
-68 -11 0 -14 -5 -10 -16 3 -9 6 -19 6 -22 0 -4 5 0 10 8 8 13 10 12 10 -2 0
-10 6 -18 14 -18 9 0 12 -7 9 -19 -3 -13 2 -21 17 -26 13 -4 18 -10 13 -14
-15 -10 -35 -75 -24 -79 5 -2 7 -10 4 -18 -3 -8 1 -14 11 -14 9 0 16 -4 16
-10 0 -5 -25 -10 -55 -10 -57 0 -73 -13 -30 -24 21 -5 25 -12 25 -45 0 -34 -4
-41 -27 -49 -25 -9 -25 -11 -6 -11 22 -1 44 -21 23 -21 -7 0 -10 -7 -6 -15 4
-11 -2 -15 -22 -15 -19 0 -23 -3 -13 -9 11 -7 11 -9 0 -14 -8 -3 1 -6 19 -6
45 -1 40 -21 -5 -21 -36 -1 -37 -2 -19 -15 15 -11 16 -15 5 -16 -10 0 -10 -2
2 -7 15 -6 16 -10 2 -44 -8 -21 -21 -38 -29 -38 -11 0 -12 -23 -9 -115 3 -72
1 -114 -5 -110 -6 4 -7 -7 -3 -26 4 -23 3 -30 -5 -25 -8 5 -12 -1 -12 -14 0
-12 5 -18 10 -15 6 3 10 -1 10 -10 0 -9 -4 -13 -10 -10 -7 4 -11 -65 -12 -197
l-2 -203 -6 280 c-4 154 -5 749 -3 1323 l4 1042 -241 0 c-153 0 -240 -4 -240
-10 0 -5 10 -10 23 -11 21 0 21 -1 2 -9 -18 -8 -18 -9 5 -9 19 -1 22 -3 10
-10 -8 -6 -18 -7 -22 -5 -4 3 -8 -6 -8 -20 0 -18 -6 -27 -22 -31 -33 -7 -68
-2 -68 10 0 5 -5 3 -10 -5 -7 -12 -36 -15 -137 -17 -70 -2 -127 -6 -126 -10 1
-5 -28 -6 -63 -5 -35 2 -64 8 -64 13 0 6 -4 7 -10 4 -6 -3 -10 4 -10 17 0 18
2 20 10 8 6 -10 10 -11 10 -2 0 8 18 13 53 14 l52 1 -63 6 c-34 3 -62 9 -62
14 0 4 0 14 0 23 0 15 18 16 180 12 127 -4 181 -2 184 6 3 7 8 6 16 -4 9 -11
13 -12 17 -2 2 6 9 12 14 12 6 0 8 -4 5 -8 -3 -5 9 -6 26 -4 115 17 -145 22
-1269 22 l-1273 0 0 -5120z m7383 5013 c-13 -2 -35 -2 -50 0 -16 2 -5 4 22 4
28 0 40 -2 28 -4z m-20 -20 c-18 -2 -33 -9 -33 -15 0 -5 -7 -8 -15 -4 -8 3
-15 1 -15 -4 0 -6 -7 -10 -15 -10 -19 0 -8 28 13 33 10 3 35 4 57 4 35 0 36
-1 8 -4z m-4980 -10 c-13 -2 -33 -2 -45 0 -13 2 -3 4 22 4 25 0 35 -2 23 -4z
m204 1 c-3 -3 -12 -4 -19 -1 -8 3 -5 6 6 6 11 1 17 -2 13 -5z m4453 -4 c0 -5
-7 -7 -15 -4 -8 4 -15 8 -15 10 0 2 7 4 15 4 8 0 15 -4 15 -10z m-4681 -36
c-9 -11 -8 -14 5 -14 9 0 16 7 16 15 0 12 12 15 53 14 28 -1 40 -4 25 -6 -44
-7 -32 -20 19 -22 28 -1 50 4 55 11 6 10 8 10 8 1 0 -9 18 -13 53 -14 50 -1
50 -1 17 -9 -19 -5 -143 -8 -275 -8 -141 1 -211 4 -170 8 l70 6 -65 5 c-46 4
-32 6 47 5 117 -1 142 10 38 17 -45 3 -38 4 28 4 73 1 86 -2 76 -13z m7120 7
c11 -7 9 -10 -7 -16 -12 -3 -21 -9 -21 -13 1 -4 1 -14 0 -22 -1 -12 -4 -11
-12 3 -6 9 -14 15 -19 12 -5 -3 -11 -1 -14 4 -3 4 4 8 17 7 12 0 22 5 23 12 1
6 2 14 3 17 2 7 14 6 30 -4z m-53 -71 c10 0 8 -6 -8 -22 -19 -19 -22 -20 -33
-5 -7 9 -16 13 -20 9 -5 -4 -5 -1 -1 6 5 9 12 9 28 1 18 -10 19 -8 14 13 -3
12 -3 17 0 11 3 -7 12 -13 20 -13z m-6 -105 c0 -2 -10 -9 -22 -15 -22 -11 -22
-10 -4 4 21 17 26 19 26 11z m-59 -48 c-10 -9 -11 -8 -5 6 3 10 9 15 12 12 3
-3 0 -11 -7 -18z m-1 -36 c0 -11 -99 -111 -110 -111 -5 0 -23 -14 -39 -31 -16
-16 -32 -26 -35 -20 -3 5 7 20 23 34 17 14 27 28 24 31 -4 3 5 6 20 6 14 0 29
4 32 10 3 5 0 8 -7 7 -7 -2 -10 -2 -5 0 4 3 7 11 7 20 0 10 6 12 22 8 16 -6
20 -4 15 8 -3 8 3 23 13 32 11 10 17 23 13 29 -4 6 1 5 10 -3 9 -7 17 -17 17
-20z m-126 -193 c-5 -8 -1 -9 12 -4 14 5 16 4 8 -4 -6 -6 -19 -8 -28 -4 -14 5
-15 9 -4 15 18 12 20 11 12 -3z m-37 -23 c0 -8 -13 -26 -28 -41 -23 -22 -27
-23 -24 -8 1 11 7 18 13 17 5 -1 16 4 22 12 10 12 10 15 -1 15 -11 0 -11 2 1
10 8 5 15 10 16 10 0 0 1 -7 1 -15z m73 -21 c0 -19 -5 -25 -17 -22 -24 4 -28
35 -6 41 10 3 19 5 21 6 1 0 2 -11 2 -25z m-76 -31 c-5 -15 -3 -15 10 1 14 17
16 17 16 3 0 -9 -10 -21 -21 -28 -15 -8 -19 -8 -15 0 10 16 -5 13 -25 -5 -13
-12 -19 -12 -25 -3 -4 7 -3 10 3 6 6 -4 21 5 33 18 28 30 31 31 24 8z m16 -36
c0 -2 -10 -12 -22 -23 l-23 -19 19 23 c18 21 26 27 26 19z m24 -9 c-4 -7 -27
-31 -53 -53 l-46 -40 45 52 c44 49 65 66 54 41z m805 -15 c-9 -11 -10 -14 -1
-9 17 10 15 -5 -5 -29 -12 -15 -14 -16 -10 -3 3 9 2 18 -4 20 -5 2 -2 13 7 26
9 13 18 21 21 18 3 -3 0 -13 -8 -23z m-869 14 c0 -2 -11 -14 -25 -27 -14 -13
-25 -21 -25 -17 0 3 10 15 22 27 21 19 28 24 28 17z m31 -61 c-9 -11 -7 -15 8
-19 13 -3 18 -11 16 -23 -2 -11 -4 -22 -4 -25 -1 -9 -60 -9 -66 1 -3 5 5 16
17 24 12 9 19 19 15 22 -7 7 10 34 20 34 3 0 0 -6 -6 -14z m922 -53 c-3 -7 -6
-13 -8 -13 -2 0 -5 6 -8 13 -3 8 1 14 8 14 7 0 11 -6 8 -14z m-923 -43 c0 -11
-4 -20 -9 -20 -5 0 -7 9 -4 20 3 11 7 20 9 20 2 0 4 -9 4 -20z m-6617 -607
c-7 -2 -19 -2 -25 0 -7 3 -2 5 12 5 14 0 19 -2 13 -5z m644 -259 c-3 -3 -12
-4 -19 -1 -8 3 -5 6 6 6 11 1 17 -2 13 -5z m-619 -141 c-16 -2 -40 -2 -55 0
-16 2 -3 4 27 4 30 0 43 -2 28 -4z m-143 -95 c6 -4 -3 -8 -18 -8 -23 0 -26 2
-15 14 7 8 15 11 18 8 3 -4 10 -10 15 -14z m48 15 c-7 -2 -19 -2 -25 0 -7 3
-2 5 12 5 14 0 19 -2 13 -5z m124 -17 c4 -3 -5 -6 -18 -6 -19 0 -21 -2 -9 -10
11 -7 2 -10 -32 -10 -41 0 -48 3 -48 19 0 18 6 19 51 16 28 -1 53 -6 56 -9z
m-117 -12 c0 -2 -9 -4 -21 -4 -11 0 -18 4 -14 10 5 8 35 3 35 -6z m68 -111
c-16 -2 -40 -2 -55 0 -16 2 -3 4 27 4 30 0 43 -2 28 -4z m3795 -140 c-13 -2
-33 -2 -45 0 -13 2 -3 4 22 4 25 0 35 -2 23 -4z m1880 0 c-13 -2 -33 -2 -45 0
-13 2 -3 4 22 4 25 0 35 -2 23 -4z m-5156 -90 c-2 -16 -4 -3 -4 27 0 30 2 43
4 28 2 -16 2 -40 0 -55z m3360 -25 c-2 -13 -4 -3 -4 22 0 25 2 35 4 23 2 -13
2 -33 0 -45z m-90 36 c-3 -3 -12 -4 -19 -1 -8 3 -5 6 6 6 11 1 17 -2 13 -5z
m0 -20 c-3 -3 -12 -4 -19 -1 -8 3 -5 6 6 6 11 1 17 -2 13 -5z m-4 -21 c-7 -2
-19 -2 -25 0 -7 3 -2 5 12 5 14 0 19 -2 13 -5z m10 -20 c-7 -2 -21 -2 -30 0
-10 3 -4 5 12 5 17 0 24 -2 18 -5z m97 -43 c0 -5 -2 -10 -4 -10 -3 0 -8 5 -11
10 -3 6 -1 10 4 10 6 0 11 -4 11 -10z m-3373 -22 c-3 -8 -6 -5 -6 6 -1 11 2
17 5 13 3 -3 4 -12 1 -19z m3303 2 c0 -5 -6 -10 -12 -11 -7 0 -4 -4 7 -9 15
-6 7 -9 -31 -9 -55 -1 -65 4 -57 25 6 16 93 20 93 4z m60 -21 c0 -5 -4 -9 -8
-9 -5 0 -9 7 -9 15 0 8 4 12 9 9 4 -3 8 -9 8 -15z m30 -30 c0 -36 -2 -40 -15
-29 -12 10 -15 9 -15 -5 0 -21 -13 -12 -16 10 -1 8 5 15 14 16 14 0 13 2 -3 9
-17 7 -17 9 -2 9 9 1 17 8 17 16 0 8 5 15 10 15 6 0 10 -19 10 -41z m-3393
-71 c-3 -7 -5 -2 -5 12 0 14 2 19 5 13 2 -7 2 -19 0 -25z m3286 25 c-13 -2
-35 -2 -50 0 -16 2 -5 4 22 4 28 0 40 -2 28 -4z m-10 -20 c-13 -2 -33 -2 -45
0 -13 2 -3 4 22 4 25 0 35 -2 23 -4z m94 1 c-3 -3 -12 -4 -19 -1 -8 3 -5 6 6
6 11 1 17 -2 13 -5z m-77 -23 c0 -5 -13 -9 -30 -9 -16 1 -30 5 -30 10 0 4 14
8 30 8 17 0 30 -4 30 -9z m74 -48 c-8 -73 -18 -86 -12 -15 3 28 1 52 -4 52 -5
0 -6 5 -3 10 16 27 25 6 19 -47z m-2655 -195 c6 -17 11 -66 11 -109 0 -59 3
-79 13 -79 10 0 12 -11 7 -42 -4 -29 -1 -53 8 -73 12 -23 14 -56 9 -157 -4
-81 -3 -128 3 -128 6 0 8 16 4 40 -6 35 -4 40 13 40 17 0 21 9 27 61 3 34 6
83 6 108 1 40 2 43 12 26 6 -11 10 -41 9 -67 -1 -29 2 -48 8 -48 6 0 11 -18
11 -40 0 -22 5 -40 10 -40 6 0 10 -18 10 -40 0 -35 -3 -40 -22 -41 l-23 0 23
-11 c12 -6 22 -14 22 -18 0 -12 -29 -20 -35 -10 -6 9 -121 6 -147 -4 -14 -6
-17 1 -20 50 -1 32 0 135 3 229 4 93 8 265 9 380 3 195 3 202 11 107 4 -57 13
-118 18 -134z m2356 222 c3 -5 1 -10 -4 -10 -6 0 -11 5 -11 10 0 6 2 10 4 10
3 0 8 -4 11 -10z m65 0 c0 -5 -5 -10 -11 -10 -5 0 -7 5 -4 10 3 6 8 10 11 10
2 0 4 -4 4 -10z m-96 -55 c11 -8 16 -15 11 -15 -5 0 -4 -5 2 -11 6 -6 9 -17 6
-24 -3 -8 5 -15 19 -18 13 -2 -5 -5 -39 -6 -36 0 -63 3 -63 9 0 6 12 10 26 10
18 0 23 4 17 13 -11 17 -15 57 -6 57 4 0 17 -7 27 -15z m-64 -20 c0 -8 -4 -15
-10 -15 -5 0 -7 7 -4 15 4 8 8 15 10 15 2 0 4 -7 4 -15z m410 -35 c12 -7 12
-12 2 -22 -9 -9 -12 -8 -13 8 0 18 -1 18 -9 -1 -8 -19 -9 -19 -9 3 -1 24 6 27
29 12z m-335 -35 c6 -2 -8 -4 -30 -4 -37 -1 -42 -4 -52 -33 -6 -18 -14 -48
-18 -65 -4 -18 -11 -33 -17 -33 -6 0 -7 9 -3 23 4 12 10 45 12 73 l5 51 46 -4
c26 -3 52 -6 57 -8z m-2214 -210 l-10 -60 4 64 c3 35 6 91 7 125 l2 61 3 -65
c2 -36 -1 -92 -6 -125z m2086 153 c-3 -7 -5 -2 -5 12 0 14 2 19 5 13 2 -7 2
-19 0 -25z m-10 -40 c-3 -8 -6 -5 -6 6 -1 11 2 17 5 13 3 -3 4 -12 1 -19z
m-417 -18 c0 -5 -2 -10 -4 -10 -3 0 -8 5 -11 10 -3 6 -1 10 4 10 6 0 11 -4 11
-10z m407 -57 c-3 -10 -5 -4 -5 12 0 17 2 24 5 18 2 -7 2 -21 0 -30z m-1809
-68 c11 -14 25 -25 31 -25 6 0 11 -7 11 -15 0 -10 11 -15 35 -15 24 0 35 5 35
15 0 16 12 18 48 9 12 -4 22 -14 22 -25 0 -15 9 -19 56 -21 45 -2 59 -7 68
-23 20 -36 56 -49 56 -20 0 23 20 18 42 -10 11 -14 24 -25 29 -25 5 0 9 11 9
25 0 23 4 25 40 25 29 0 40 -4 40 -15 0 -11 10 -15 38 -14 20 1 29 3 20 6 -24
6 -23 23 2 23 15 0 20 -7 21 -27 0 -16 3 -22 6 -15 6 14 93 17 93 2 0 -5 14
-10 30 -10 20 0 30 -5 30 -15 0 -12 14 -15 65 -15 l65 0 0 40 c0 29 4 40 15
40 8 0 15 -7 15 -15 0 -11 11 -15 40 -15 29 0 40 4 40 15 0 10 10 15 30 15 28
0 30 3 30 38 0 20 5 44 10 52 8 12 10 9 10 -12 l0 -28 80 0 c57 0 80 -4 80
-12 0 -7 3 -31 6 -53 4 -27 3 -36 -4 -26 -8 11 -14 9 -33 -10 -14 -14 -18 -24
-11 -27 8 -2 12 -26 12 -63 0 -39 4 -61 13 -64 8 -4 12 -30 11 -88 0 -45 -2
-86 -2 -92 -1 -5 -4 -62 -6 -126 -3 -97 -7 -122 -24 -146 -14 -20 -22 -54 -28
-123 -6 -71 -9 -87 -15 -65 -6 26 -7 24 -8 -17 -1 -35 -6 -50 -20 -57 -10 -6
-21 -7 -25 -4 -3 3 -7 0 -8 -8 -1 -14 -3 -24 -8 -44 -3 -12 -6 -33 -9 -57 0
-11 -9 -18 -23 -18 -17 0 -19 -3 -10 -12 9 -9 17 -9 36 1 29 16 53 6 35 -15
-6 -7 -9 -21 -5 -29 3 -8 1 -15 -3 -15 -5 0 -9 -10 -10 -22 0 -13 -2 -32 -3
-43 -4 -46 13 -239 22 -245 5 -3 12 -46 15 -96 4 -49 9 -98 12 -109 3 -11 5
-45 4 -75 -1 -39 2 -51 9 -40 6 9 10 11 10 3 0 -7 -10 -18 -22 -24 -19 -10
-20 -13 -6 -23 18 -13 33 -210 15 -199 -6 4 -8 -3 -4 -18 4 -13 7 -35 7 -49 1
-56 17 5 18 67 1 36 4 68 7 71 3 3 5 -39 5 -92 0 -86 -2 -97 -16 -92 -13 5
-16 0 -12 -29 3 -27 0 -35 -12 -35 -10 0 -8 -6 10 -20 14 -10 21 -22 16 -27
-5 -4 -11 -2 -13 5 -3 6 -9 12 -15 12 -6 0 -8 -6 -5 -14 3 -8 1 -17 -6 -20 -7
-2 -3 -5 8 -6 17 -2 16 -3 -5 -10 l-25 -8 25 -1 c20 -1 22 -3 10 -11 -13 -9
-13 -11 0 -20 12 -8 10 -10 -10 -11 -24 -2 -24 -2 -2 -6 12 -2 22 -9 22 -15 0
-6 8 -20 17 -31 14 -15 18 -41 21 -125 3 -107 15 -156 36 -146 6 3 3 -1 -6 -9
-22 -17 -23 -31 -4 -50 21 -21 46 -102 46 -152 0 -34 4 -45 15 -45 13 0 16
-13 14 -67 -2 -117 9 -143 61 -143 38 0 39 0 42 43 2 23 -2 67 -8 98 -6 31 -8
79 -4 107 3 28 3 57 0 64 -4 7 -5 59 -2 116 4 86 7 102 21 101 10 0 11 -2 4
-6 -7 -2 -13 -11 -13 -19 0 -9 5 -12 10 -9 6 3 10 -1 10 -9 0 -9 -4 -16 -10
-16 -5 0 -10 -4 -10 -10 0 -5 6 -10 14 -10 8 0 16 -5 18 -11 2 -7 3 52 2 130
-2 77 1 141 6 141 4 0 6 -17 4 -37 -3 -21 -1 -58 4 -83 l8 -45 5 37 c3 20 1
34 -3 32 -4 -3 -8 13 -8 35 0 23 2 41 4 41 2 0 10 2 18 5 10 4 12 -6 9 -46 -2
-35 1 -55 10 -61 11 -8 10 -9 -3 -4 -15 4 -18 -1 -18 -29 0 -19 -4 -35 -10
-35 -5 0 -9 -19 -8 -42 l1 -43 4 38 c2 20 8 35 14 32 5 -4 9 2 10 12 0 14 2
13 10 -5 6 -15 5 -31 -2 -44 -6 -12 -10 -67 -10 -129 1 -70 -2 -109 -9 -109
-6 0 -8 -10 -5 -23 4 -12 1 -35 -4 -50 -8 -20 -7 -27 2 -27 6 -1 0 -11 -16
-23 -22 -18 -29 -35 -35 -82 l-7 -60 -53 1 c-73 2 -66 -14 8 -18 34 -2 59 -7
58 -13 -2 -6 -24 -8 -50 -7 -32 3 -48 0 -48 -8 0 -7 8 -9 20 -5 11 3 30 3 43
-1 21 -7 21 -7 2 -15 -19 -7 -19 -8 -1 -8 20 -1 20 -1 0 -16 -17 -13 -17 -14
-1 -15 27 0 20 -20 -8 -20 -14 0 -25 -4 -25 -10 0 -13 16 -13 40 0 13 7 21 7
26 -2 4 -6 2 -14 -4 -16 -20 -6 -13 -22 10 -22 20 0 20 -1 5 -18 -12 -13 -13
-22 -6 -29 7 -7 5 -14 -6 -23 -8 -7 -15 -25 -15 -41 0 -45 -18 -34 -23 14 -2
23 -2 -4 -1 -61 3 -103 8 -127 24 -117 4 3 13 -2 20 -10 10 -12 10 -15 -1 -15
-11 0 -11 -2 1 -10 21 -14 57 -12 64 3 3 6 5 -22 4 -63 -1 -73 9 -180 19 -210
3 -12 8 -10 24 9 l19 23 2 -38 1 -39 7 45 c5 32 8 38 10 20 2 -14 6 2 10 35 5
45 8 18 10 -105 3 -127 5 -150 10 -100 6 61 7 59 10 -45 3 -95 4 -103 10 -55
6 47 7 49 8 17 1 -21 5 -36 10 -34 4 3 16 1 27 -4 19 -7 19 -8 -2 -8 -12 -1
-25 -6 -29 -13 -4 -6 -3 -8 4 -5 16 11 39 -2 45 -24 4 -13 0 -23 -11 -27 -14
-5 -12 -7 8 -13 24 -7 24 -7 -5 -9 -16 -1 -39 -5 -50 -10 -13 -5 -1 -7 35 -5
30 1 40 0 21 -2 -22 -3 -30 -7 -22 -12 6 -4 -46 -6 -117 -3 -71 2 -214 1 -318
-4 -170 -8 -180 -9 -104 -15 70 -4 58 -6 -72 -7 -87 -1 -158 -6 -158 -11 0 -5
-26 -7 -57 -5 -40 3 -69 -1 -93 -12 -44 -20 -121 -108 -219 -249 -61 -88 -77
-105 -79 -87 -2 12 -7 20 -12 17 -5 -3 -18 3 -30 15 -24 24 -76 27 -106 5 -12
-8 -24 -12 -27 -9 -3 3 -5 -1 -4 -8 1 -36 -4 -58 -14 -58 -6 0 -9 9 -6 20 3
13 -2 26 -16 36 l-22 16 23 -5 c12 -3 19 -1 16 4 -3 5 9 14 26 21 40 13 23 27
-35 29 -40 2 -39 2 10 9 l50 7 -60 3 c-58 3 -59 3 -20 10 38 7 38 7 8 9 -22 1
-34 7 -38 21 -4 11 -18 27 -33 35 l-27 14 40 1 c22 1 34 4 28 7 -25 10 -12 23
25 24 35 2 35 2 7 7 l-30 5 30 7 c29 7 28 8 -10 9 -22 1 -58 8 -80 16 l-40 14
35 1 c47 1 19 20 -30 20 -26 0 -31 3 -20 10 12 8 9 10 -12 10 -15 0 -30 5 -33
10 -4 6 9 10 31 10 21 0 35 2 33 5 -4 4 -178 14 -251 15 -22 0 -26 4 -21 18 5
14 3 13 -10 -3 -15 -17 -18 -18 -28 -5 -8 11 -12 12 -16 3 -8 -20 -23 -15 -23
7 0 12 7 20 18 21 16 1 16 2 0 6 -10 2 -25 -3 -34 -11 -17 -18 -59 -22 -49 -5
4 6 13 8 21 5 8 -3 14 -1 14 4 0 6 -53 11 -127 12 -90 1 -115 3 -83 8 l45 7
-57 1 c-37 1 -58 -2 -61 -10 -3 -8 -6 -6 -6 4 -1 15 13 18 112 21 l112 3 -127
2 c-80 1 -128 -2 -128 -8 0 -5 -25 -10 -56 -10 -52 0 -55 1 -49 21 6 17 3 20
-12 17 -10 -2 -17 -11 -15 -21 2 -14 -4 -16 -50 -11 -36 4 -50 2 -43 -5 6 -5
35 -12 65 -14 30 -2 5 -4 -56 -5 -98 -2 -113 -4 -130 -23 -11 -13 -27 -19 -41
-16 -14 3 -24 -2 -26 -12 -3 -10 -6 -6 -7 9 l-2 25 -7 -25 c-4 -14 -17 -27
-31 -31 -21 -6 -22 -7 -5 -9 12 -1 15 -4 7 -7 -7 -3 -19 0 -27 7 -23 19 -75
-8 -76 -40 -1 -23 -2 -22 -8 5 -4 20 -9 26 -14 18 -5 -7 -5 -18 -2 -23 3 -5
-3 -10 -14 -10 -27 0 -37 3 -34 12 2 4 -4 5 -12 2 -8 -4 -12 -11 -9 -16 4 -6
1 -8 -7 -6 -8 3 -13 10 -12 16 3 12 -35 27 -45 17 -4 -3 0 -11 8 -16 11 -8 6
-9 -19 -5 -27 5 -32 3 -27 -9 3 -8 0 -15 -7 -15 -7 0 -18 -8 -25 -17 -11 -16
-31 -18 -180 -17 -386 4 -396 4 -413 -14 -7 -6 -24 -12 -38 -11 l-26 1 25 7
c17 5 21 9 12 15 -6 4 -16 4 -22 1 -6 -4 -10 5 -10 19 0 14 -5 26 -11 26 -5 0
-7 5 -4 10 3 6 1 10 -5 10 -7 0 -9 8 -5 20 5 17 2 20 -22 21 -20 1 -22 3 -8 6
37 8 65 26 65 42 -1 14 -2 14 -13 0 -7 -9 -22 -19 -34 -23 -18 -6 -22 -4 -17
9 4 8 16 21 27 27 20 10 20 11 1 25 -18 15 -18 15 9 11 18 -4 27 -1 27 8 0 8
9 14 20 14 11 0 20 5 20 10 0 15 -26 12 -40 -5 -13 -15 -85 -21 -93 -7 -3 4
15 5 39 3 35 -2 44 0 44 12 0 9 10 23 22 31 22 16 21 16 -22 17 -40 1 -41 2
-15 8 21 5 29 12 27 24 -2 9 3 17 10 18 33 1 -33 18 -82 20 l-55 3 70 6 c61 6
64 7 22 8 -27 1 -46 6 -42 11 3 5 -3 12 -12 14 -10 3 11 6 47 8 l65 2 -60 7
c-37 4 -49 8 -30 9 25 3 21 5 -25 16 -30 7 -47 13 -36 14 11 1 16 6 13 15 -3
7 0 19 6 26 10 10 6 11 -15 6 -15 -3 -30 -2 -33 4 -4 6 8 11 27 11 22 1 26 3
12 6 -29 6 -37 39 -14 61 11 11 20 40 25 80 4 34 10 62 15 62 4 0 10 14 14 32
3 17 14 40 22 50 9 9 18 26 19 35 4 38 28 82 47 89 16 5 18 8 7 15 -10 6 -6
11 19 20 17 6 32 15 32 20 0 5 19 9 43 9 28 0 37 3 28 9 -9 6 9 11 55 16 121
12 173 24 108 26 -25 0 -26 1 -9 8 11 5 37 11 57 15 32 6 37 4 32 -9 -4 -10 0
-15 12 -15 16 0 17 2 4 11 -11 8 -6 9 20 5 l35 -6 -35 14 c-19 8 -28 15 -20
16 12 1 12 3 1 7 -11 5 -11 7 0 15 10 7 8 8 -8 5 -13 -3 -23 -1 -23 4 0 5 13
9 28 9 23 0 28 -4 28 -22 -1 -21 5 -23 68 -31 39 -4 77 -14 87 -23 15 -13 17
-13 22 1 12 28 29 17 22 -15 -5 -24 -3 -30 10 -30 11 0 15 5 11 15 -8 22 12
18 24 -5 9 -17 21 -20 75 -20 45 0 66 -4 72 -14 4 -8 28 -17 52 -20 24 -3 49
-10 55 -17 8 -8 2 -10 -24 -5 l-35 6 30 -16 30 -15 -45 5 -45 4 40 -13 c49
-16 75 -18 75 -5 0 6 5 10 12 10 7 0 5 -7 -5 -17 -14 -17 -14 -18 6 -20 12 0
38 -2 57 -4 l35 -2 -30 -13 c-26 -11 -27 -13 -8 -14 16 0 21 -5 17 -15 -7 -18
17 -20 34 -3 9 9 13 7 18 -5 9 -25 34 -21 35 6 0 20 1 20 8 3 4 -11 16 -21 27
-22 10 -2 52 -11 92 -20 58 -14 72 -21 72 -36 0 -11 8 -27 17 -36 18 -18 18
-20 -3 32 -4 11 1 14 15 13 12 -1 21 -8 21 -17 0 -13 1 -13 10 0 8 12 10 12
11 -5 l0 -20 9 20 c8 19 9 19 9 1 1 -13 6 -17 21 -13 11 3 20 0 20 -6 0 -7 4
-7 9 2 8 12 10 12 14 0 2 -8 3 0 1 16 -1 17 0 24 3 17 2 -6 8 -10 12 -7 5 2 6
-7 3 -22 -4 -21 -2 -25 11 -20 10 4 17 -2 22 -16 5 -18 9 -13 23 31 9 29 22
52 30 52 9 0 11 -8 8 -22 -3 -13 -3 -17 0 -10 3 6 14 12 24 12 25 0 36 18 16
26 -14 5 -14 8 -1 27 20 29 19 37 -7 38 -13 1 -5 5 17 9 33 6 25 8 -45 10
l-85 3 75 8 c91 11 108 17 55 20 l-40 2 35 7 c28 6 30 8 10 9 -25 1 -24 2 8
22 38 25 39 27 10 39 -22 8 -22 9 5 9 25 1 27 4 21 29 -4 19 -3 23 4 13 7 -10
11 -2 14 28 3 31 0 40 -9 37 -7 -3 -13 -1 -13 4 0 6 8 10 18 11 11 1 9 4 -8 9
l-25 8 25 2 c22 1 23 2 6 9 -19 7 -19 8 0 15 19 7 19 8 0 22 -19 14 -19 14 5
15 13 0 18 3 12 6 -16 6 -18 99 -3 108 8 5 8 11 0 20 -8 9 -8 15 0 20 5 3 10
22 10 41 0 21 -4 33 -10 29 -5 -3 -10 -1 -10 4 0 6 5 11 10 11 6 0 10 25 10
55 0 44 4 56 20 65 15 8 20 8 20 -2 0 -9 3 -9 10 2 6 10 10 11 10 3 0 -9 22
-13 75 -13 41 0 75 -4 75 -9 0 -6 -15 -8 -32 -7 -18 2 -23 1 -10 -1 12 -2 20
-8 17 -13 -3 -4 -14 -6 -25 -3 -16 4 -20 1 -18 -18 3 -21 -1 -24 -24 -21 -24
2 -28 -1 -28 -23 0 -14 -6 -25 -12 -26 -7 -1 -2 -5 12 -9 22 -7 21 -8 -12 -9
-39 -1 -44 -6 -29 -29 7 -11 9 -11 14 1 6 17 57 11 54 -6 -4 -24 40 -18 57 7
15 24 15 27 -5 47 -16 16 -18 24 -10 32 9 9 14 8 22 -3 8 -12 10 -9 6 13 -4
27 6 36 19 16 4 -6 6 -35 6 -63 0 -29 4 -59 9 -67 6 -10 9 -8 9 11 0 32 15 55
29 46 6 -4 11 -2 11 3 0 6 19 11 43 11 41 1 42 1 17 15 -25 14 -25 14 -2 15
12 0 22 5 22 10 0 6 -8 10 -19 10 -13 0 -18 7 -18 25 0 33 -17 51 -56 60 -32
7 -32 7 -7 15 20 6 14 9 -30 11 l-55 2 55 7 c30 4 45 7 33 8 -13 1 -23 7 -23
12 0 6 10 11 23 12 12 1 -12 4 -53 8 l-75 6 88 2 c48 1 87 6 87 11 0 5 12 12
28 14 21 3 19 4 -11 6 -24 0 -36 5 -32 11 4 6 15 8 25 5 10 -3 21 -1 25 5 4 6
-8 10 -32 11 -37 1 -37 2 -8 8 18 4 25 9 18 14 -6 4 -19 4 -29 0 -12 -4 -15
-3 -10 5 4 7 24 13 44 14 20 1 -3 5 -53 8 l-90 6 90 4 90 4 -125 6 -125 6 125
3 c69 2 115 6 102 8 -12 2 -20 9 -17 14 4 5 -1 9 -10 9 -13 0 -15 6 -10 33 10
43 13 47 38 49 12 1 -5 4 -38 8 l-60 7 58 1 c34 1 57 6 57 13 0 6 -9 9 -20 6
-11 -3 -22 -1 -25 3 -3 5 7 11 22 13 16 2 -10 6 -57 7 l-85 4 85 5 85 6 1 52
c0 35 7 59 18 72 10 11 15 24 12 30 -3 5 0 12 6 14 7 3 0 6 -17 6 -22 1 -26
-2 -15 -9 22 -14 10 -17 -42 -12 -33 3 -48 9 -48 18 0 11 20 14 97 14 53 0 93
3 89 7 -4 4 -48 7 -99 6 l-92 -1 85 12 85 12 -75 9 c-66 7 -71 9 -40 15 23 5
-8 9 -90 11 l-125 3 108 3 c94 3 107 6 97 18 -10 12 -10 15 1 15 12 0 12 2 1
9 -8 4 -13 11 -13 15 3 22 0 36 -9 36 -6 0 -9 -6 -8 -12 2 -8 -10 -14 -29 -16
-23 -2 -30 -7 -26 -18 3 -8 0 -14 -7 -14 -25 0 -4 35 23 38 15 2 27 9 27 17 0
15 -59 28 -93 20 -32 -8 -35 -1 -27 65 7 50 7 51 9 14 1 -52 15 -64 71 -62
l45 1 -45 7 c-25 4 -34 8 -22 8 l24 2 -21 36 c-25 42 -25 44 -4 44 9 0 13 3 9
7 -3 4 -28 6 -54 6 -26 -1 -36 1 -22 3 54 10 70 15 70 24 0 5 -10 12 -22 16
-22 7 -22 7 -3 15 16 6 14 8 -11 8 -24 1 -31 5 -30 19 0 9 5 20 11 24 5 4 -2
11 -15 17 -23 9 -22 10 13 10 67 2 39 16 -33 17 -66 0 -69 -1 -64 -22 4 -16 0
-23 -15 -27 -13 -3 -21 -1 -20 6 3 19 -19 67 -31 67 -6 0 -13 -7 -16 -15 -11
-28 -24 -15 -24 25 l0 40 43 2 42 1 -42 4 c-35 3 -43 8 -43 24 0 15 8 19 43
21 l42 1 -42 4 -43 4 0 45 c0 24 5 44 10 44 6 0 9 -5 8 -12 -2 -6 6 -14 16
-16 14 -3 17 0 13 12 -4 9 3 22 19 33 l25 18 -48 -2 -48 -1 40 7 c31 6 34 9
15 11 -24 2 -24 3 5 10 28 7 27 8 -15 10 -32 2 -37 4 -17 7 15 2 27 11 27 19
0 8 8 14 18 15 11 1 9 4 -8 9 -23 7 -23 8 -3 9 18 1 21 6 18 31 -2 16 0 32 6
35 5 4 9 -1 9 -9 0 -9 6 -16 13 -17 9 0 9 -2 -1 -6 -10 -4 -10 -8 -1 -19 9
-11 9 -14 -1 -14 -10 0 -10 -3 0 -15 10 -12 10 -15 -1 -16 -8 -1 4 -5 26 -9
40 -7 40 -7 7 -9 -54 -2 -33 -25 29 -32 40 -4 45 -6 18 -7 -51 -3 -67 -20 -71
-75 l-3 -47 115 6 c143 7 161 17 23 12 -122 -4 -126 5 -5 13 l87 6 -93 -1
c-50 0 -92 2 -92 7 0 4 48 8 108 9 59 1 83 3 54 5 -45 4 -52 6 -42 19 11 12 5
13 -36 8 -27 -3 -57 -7 -66 -9 -10 -2 -18 1 -18 6 0 5 7 9 15 9 8 0 15 6 15
13 0 8 4 7 10 -3 6 -10 10 -11 10 -2 0 6 5 12 11 12 5 0 7 -4 4 -10 -3 -5 -1
-10 4 -10 6 0 11 6 12 13 0 9 2 9 5 0 3 -7 12 -10 20 -7 47 14 46 14 35 28
-13 15 4 26 40 26 11 0 19 7 19 18 0 10 -3 13 -8 7 -4 -6 -22 -8 -42 -4 -34 6
-34 6 -5 8 17 1 37 6 45 12 12 8 10 9 -7 4 -13 -3 -31 -2 -40 4 -16 9 -14 10
10 11 30 0 37 16 10 23 -10 3 -5 5 12 6 23 1 27 3 15 11 -13 8 -12 10 5 11 18
1 18 2 2 6 -11 3 -16 11 -13 19 3 9 -1 14 -12 15 -14 0 -14 2 -2 6 25 10 30
26 12 39 -16 12 -16 13 1 19 20 8 23 31 5 38 -7 3 -4 6 7 7 l20 1 -20 9 c-18
8 -18 9 -2 9 10 1 15 5 12 11 -6 9 10 15 65 23 14 3 -2 6 -35 7 -33 1 -49 5
-36 7 19 4 21 7 10 14 -12 7 -12 9 1 9 13 0 13 1 0 10 -10 6 -11 10 -2 10 19
0 14 20 -5 21 -12 1 -10 4 7 9 25 8 25 8 -5 10 l-30 3 35 7 c35 7 35 7 5 9
-16 1 -37 6 -45 11 -11 8 -8 9 12 4 23 -5 27 -3 25 15 -1 12 -8 21 -17 22 -10
0 -9 3 5 9 11 5 16 9 10 9 -6 1 -8 21 -6 48 2 27 6 152 8 278 4 222 3 231 -17
253 -14 14 -32 22 -55 22 -24 0 -35 5 -35 15 0 8 -3 15 -7 15 -9 0 -8 159 1
167 3 4 6 65 6 137 0 103 3 136 16 154 9 13 13 31 9 42 -5 14 -2 20 9 20 9 0
16 5 16 10 0 20 49 10 68 -15z m1242 -10 c0 -8 -7 -15 -16 -15 -14 0 -14 3 -4
15 7 8 14 15 16 15 2 0 4 -7 4 -15z m580 0 c0 -8 -4 -15 -10 -15 -5 0 -10 7
-10 15 0 8 5 15 10 15 6 0 10 -7 10 -15z m-535 -25 c-3 -5 -12 -7 -20 -3 -21
7 -19 13 6 13 11 0 18 -4 14 -10z m375 0 c0 -5 -4 -10 -10 -10 -5 0 -10 5 -10
10 0 6 5 10 10 10 6 0 10 -4 10 -10z m110 -30 c0 -22 -4 -40 -10 -40 -5 0 -10
18 -10 40 0 22 5 40 10 40 6 0 10 -18 10 -40z m-2024 -38 c-11 -10 -15 4 -8
28 l7 25 3 -23 c2 -13 1 -26 -2 -30z m795 11 c13 -16 12 -17 -3 -4 -10 7 -18
15 -18 17 0 8 8 3 21 -13z m159 -3 c0 -5 -4 -10 -10 -10 -5 0 -10 5 -10 10 0
6 5 10 10 10 6 0 10 -4 10 -10z m1020 -19 c0 -14 60 -71 75 -71 10 0 12 -20
10 -87 -2 -48 0 -92 5 -98 16 -21 18 -139 2 -173 -9 -20 -11 -37 -6 -40 5 -4
10 -16 9 -27 0 -15 -6 -19 -25 -17 l-25 3 25 -21 c14 -11 21 -20 15 -19 -34 5
-38 -1 -32 -56 3 -31 1 -57 -4 -61 -5 -3 -7 -14 -4 -25 4 -11 8 -33 10 -48 4
-29 3 -29 -68 -39 l-72 -11 75 5 c43 3 86 1 100 -5 23 -10 22 -11 -8 -5 -25 4
-33 2 -31 -8 1 -7 -1 -21 -6 -31 -4 -10 -2 -23 4 -31 9 -11 5 -16 -20 -25 -41
-14 -29 -26 31 -31 12 0 12 -3 -2 -14 -10 -7 -16 -15 -14 -17 2 -2 1 -23 -3
-46 -5 -23 -4 -47 0 -55 5 -7 2 -22 -7 -35 -11 -18 -12 -23 -2 -24 7 -1 -21
-5 -62 -9 -77 -7 -94 -5 -71 9 7 5 11 13 7 19 -3 6 -2 13 4 17 17 11 12 45 -7
45 -15 0 -16 2 -3 10 21 13 31 -8 26 -55 -3 -22 -3 -32 0 -22 3 9 12 17 19 17
9 0 12 -6 9 -15 -5 -11 1 -15 20 -15 20 0 24 4 19 18 -4 9 -13 22 -21 28 -8 6
-17 33 -19 61 -5 44 -3 52 13 56 12 3 6 5 -13 6 -45 1 -53 21 -9 21 53 0 43
16 -14 24 -34 5 -50 11 -50 21 0 10 11 15 33 16 25 0 28 2 13 8 -19 7 -18 8 4
24 l23 16 -29 6 c-43 10 -51 13 -31 14 9 1 17 6 17 12 0 6 -7 9 -15 5 -12 -4
-15 3 -15 34 0 22 4 40 10 40 5 0 14 9 21 21 9 18 8 20 -9 15 -18 -6 -20 0
-25 76 -6 96 3 527 12 532 3 2 4 -36 3 -85 -3 -60 0 -89 7 -89 9 0 18 138 12
174 -1 5 1 22 4 37 6 26 11 29 46 29 21 0 39 -4 39 -9z m-2223 -137 c-3 -18
-1 -36 5 -42 11 -11 3 -32 -13 -32 -5 0 -9 39 -8 88 1 75 2 82 11 52 5 -19 8
-49 5 -66z m40 74 c-3 -8 -6 -5 -6 6 -1 11 2 17 5 13 3 -3 4 -12 1 -19z m260
-120 c-2 -13 -4 -3 -4 22 0 25 2 35 4 23 2 -13 2 -33 0 -45z m-1225 8 c11 6
11 5 0 -8 -10 -13 -8 -18 13 -32 14 -9 30 -27 34 -40 13 -32 25 -985 16 -1208
-6 -148 -10 -186 -20 -182 -8 3 -16 12 -19 19 -3 9 0 12 9 8 13 -4 13 -2 1 22
-8 15 -13 36 -11 46 3 13 -2 19 -14 19 -14 0 -18 -7 -16 -30 2 -19 -2 -30 -11
-30 -7 0 -15 -4 -19 -10 -10 -16 6 -59 23 -63 10 -3 4 -5 -11 -6 -24 -1 -27 2
-22 19 3 11 2 20 -3 20 -5 0 -10 60 -11 133 -1 72 -4 164 -7 202 -3 39 -7 140
-9 225 -2 85 -6 164 -8 175 -3 11 0 28 5 38 6 12 5 17 -4 17 -9 0 -9 3 -2 8 5
4 11 34 12 67 5 254 18 538 26 570 2 11 5 24 5 29 1 5 8 3 16 -4 8 -6 20 -8
27 -4z m968 -26 c0 -5 -2 -10 -4 -10 -3 0 -8 5 -11 10 -3 6 -1 10 4 10 6 0 11
-4 11 -10z m282 -85 c1 -30 2 -65 2 -77 1 -12 -5 -23 -11 -25 -10 -4 -13 16
-13 76 0 91 19 114 22 26z m-279 -72 c-13 -2 -33 -2 -45 0 -13 2 -3 4 22 4 25
0 35 -2 23 -4z m247 -34 c0 -12 -27 -11 -35 1 -11 17 5 32 21 19 8 -6 14 -15
14 -20z m6048 5 c-1 -5 -9 -9 -16 -10 -10 -2 -11 1 -1 12 12 14 24 13 17 -2z
m-6038 -46 c0 -6 -7 -7 -16 -4 -9 3 -18 6 -20 6 -3 0 -3 4 1 10 7 11 35 2 35
-12z m6034 6 c3 -8 2 -12 -4 -9 -6 3 -10 10 -10 16 0 14 7 11 14 -7z m-6244
-34 c0 -5 -2 -10 -4 -10 -3 0 -8 5 -11 10 -3 6 -1 10 4 10 6 0 11 -4 11 -10z
m-10 -31 c0 -5 -4 -9 -10 -9 -5 0 -10 7 -10 16 0 8 5 12 10 9 6 -3 10 -10 10
-16z m212 -41 c-6 -6 -15 -8 -19 -4 -4 4 -1 11 7 16 19 12 27 3 12 -12z m2431
-65 c-7 -2 -19 -2 -25 0 -7 3 -2 5 12 5 14 0 19 -2 13 -5z m-2396 -25 c-3 -8
-6 -5 -6 6 -1 11 2 17 5 13 3 -3 4 -12 1 -19z m2380 -22 c-5 -11 4 -16 36 -18
l42 -3 -46 -5 c-41 -5 -45 -3 -45 18 0 12 4 22 9 22 5 0 7 -7 4 -14z m-90 -12
c-3 -3 -12 -4 -19 -1 -8 3 -5 6 6 6 11 1 17 -2 13 -5z m56 -1 c-7 -2 -19 -2
-25 0 -7 3 -2 5 12 5 14 0 19 -2 13 -5z m3672 -63 c10 -11 16 -20 13 -20 -3 0
-13 9 -23 20 -10 11 -16 20 -13 20 3 0 13 -9 23 -20z m-6005 -11 c0 -6 -4 -7
-10 -4 -5 3 -10 11 -10 16 0 6 5 7 10 4 6 -3 10 -11 10 -16z m-24 -54 c-3 -9
0 -15 9 -15 8 0 15 -7 15 -15 0 -8 -9 -15 -20 -15 -11 0 -20 7 -20 15 0 8 -5
15 -10 15 -6 0 -5 6 2 15 17 19 32 19 24 0z m71 -3 c8 -5 7 -12 -4 -27 -15
-19 -15 -19 -8 4 6 20 4 23 -9 18 -9 -4 -16 -2 -16 3 0 12 20 13 37 2z m1746
-29 c-7 -2 -21 -2 -30 0 -10 3 -4 5 12 5 17 0 24 -2 18 -5z m-1813 -27 c0 -3
-4 -8 -10 -11 -5 -3 -10 -1 -10 4 0 6 5 11 10 11 6 0 10 -2 10 -4z m1811 -106
c5 0 8 -12 8 -27 -2 -24 -2 -25 -6 -5 -2 12 -10 22 -17 22 -8 0 -12 10 -11 23
4 32 7 35 12 10 2 -13 9 -23 14 -23z m-501 10 c0 -5 -4 -10 -10 -10 -5 0 -10
5 -10 10 0 6 5 10 10 10 6 0 10 -4 10 -10z m697 4 c-3 -3 -12 -4 -19 -1 -8 3
-5 6 6 6 11 1 17 -2 13 -5z m-207 -120 c0 -8 -4 -12 -10 -9 -5 3 -10 10 -10
16 0 5 5 9 10 9 6 0 10 -7 10 -16z m153 -81 c-7 -2 -13 -11 -13 -19 0 -9 -11
-14 -35 -14 -41 0 -48 19 -7 22 18 1 12 3 -18 8 -43 7 -42 7 20 8 36 0 59 -2
53 -5z m-108 -23 c7 -12 -12 -12 -40 0 -18 8 -17 9 7 9 15 1 30 -3 33 -9z m83
-27 c-15 -2 -42 -2 -60 0 -18 2 -6 4 27 4 33 0 48 -2 33 -4z m-60 -20 c-10 -2
-26 -2 -35 0 -10 3 -2 5 17 5 19 0 27 -2 18 -5z m3599 -9 c-3 -3 -12 -4 -19
-1 -8 3 -5 6 6 6 11 1 17 -2 13 -5z m-132 -48 c-95 -39 -315 -145 -365 -176
-19 -12 -26 -14 -15 -5 38 32 131 82 245 132 176 78 184 81 200 82 8 0 -21
-15 -65 -33z m135 14 c-8 -5 -19 -10 -25 -10 -5 0 -3 5 5 10 8 5 20 10 25 10
6 0 3 -5 -5 -10z m-61 -24 c-2 -2 -15 -9 -29 -15 -24 -11 -24 -11 -6 3 16 13
49 24 35 12z m-3546 -23 c-7 -2 -21 -2 -30 0 -10 3 -4 5 12 5 17 0 24 -2 18
-5z m3650 0 c-7 -2 -19 -2 -25 0 -7 3 -2 5 12 5 14 0 19 -2 13 -5z m-46 -9
c-3 -3 -12 -4 -19 -1 -8 3 -5 6 6 6 11 1 17 -2 13 -5z m-147 -9 c0 -6 -97 -55
-107 -55 -4 1 17 14 47 30 61 32 60 32 60 25z m-3673 -31 c-3 -3 -12 -4 -19
-1 -8 3 -5 6 6 6 11 1 17 -2 13 -5z m3683 -19 c-14 -8 -29 -14 -35 -14 -5 0 1
6 15 14 14 8 30 14 35 14 6 0 -1 -6 -15 -14z m110 5 c-8 -5 -19 -10 -25 -10
-5 0 -3 5 5 10 8 5 20 10 25 10 6 0 3 -5 -5 -10z m-3700 -17 c3 -3 -16 -4 -42
-2 -46 4 -63 -3 -35 -14 6 -3 0 -6 -15 -6 -16 -1 -28 4 -28 10 0 5 5 7 10 4 6
-3 10 0 10 8 0 11 11 13 48 9 26 -2 49 -7 52 -9z m27 -5 c-3 -8 -6 -5 -6 6 -1
11 2 17 5 13 3 -3 4 -12 1 -19z m20 -30 c-2 -13 -4 -5 -4 17 -1 22 1 32 4 23
2 -10 2 -28 0 -40z m60 36 c-3 -3 -12 -4 -19 -1 -8 3 -5 6 6 6 11 1 17 -2 13
-5z m3348 -4 c-3 -5 -11 -10 -16 -10 -6 0 -7 5 -4 10 3 6 11 10 16 10 6 0 7
-4 4 -10z m-3462 -17 c-7 -2 -21 -2 -30 0 -10 3 -4 5 12 5 17 0 24 -2 18 -5z
m-5 -45 l77 -2 -85 -6 -85 -6 125 -4 125 -4 -122 -5 c-67 -3 -125 -10 -130
-15 -4 -5 6 -5 25 -1 22 4 32 3 32 -5 0 -7 -6 -10 -12 -7 -7 2 -22 1 -33 -4
-15 -6 -11 -8 19 -8 25 -1 44 5 53 17 14 16 14 16 9 0 -5 -16 3 -18 75 -17 81
1 126 -10 53 -12 l-39 -2 40 -7 40 -7 -51 -2 c-52 -1 -135 -31 -87 -31 12 0
25 5 28 10 3 6 25 9 48 8 36 -1 38 -2 10 -5 -21 -3 -34 -11 -38 -24 -6 -17
-16 -19 -86 -19 l-79 0 0 -94 c0 -89 1 -95 22 -98 21 -3 21 -4 3 -18 -11 -9
-16 -10 -11 -2 4 6 2 12 -3 12 -6 0 -11 -16 -11 -35 l0 -35 53 -2 52 -2 -52
-3 -53 -4 0 -55 c0 -30 3 -53 8 -51 4 3 5 -15 3 -39 -1 -24 -7 -44 -12 -44 -5
0 -9 -5 -9 -11 0 -5 5 -7 10 -4 6 3 10 -2 10 -13 0 -10 -7 -19 -15 -19 -13 0
-15 46 -15 339 0 255 3 342 13 353 10 11 13 11 15 -1 3 -10 24 -14 80 -16z
m-48 28 c0 -3 -4 -8 -10 -11 -5 -3 -10 -1 -10 4 0 6 5 11 10 11 6 0 10 -2 10
-4z m3400 -21 c0 -2 -13 -11 -30 -20 -38 -19 -40 -11 -2 9 31 17 32 18 32 11z
m800 1 c0 -2 -7 -7 -16 -10 -8 -3 -12 -2 -9 4 6 10 25 14 25 6z m-4017 -13
c-7 -2 -21 -2 -30 0 -10 3 -4 5 12 5 17 0 24 -2 18 -5z m-1856 -35 c-3 -8 -6
-5 -6 6 -1 11 2 17 5 13 3 -3 4 -12 1 -19z m1920 16 c-3 -3 -12 -4 -19 -1 -8
3 -5 6 6 6 11 1 17 -2 13 -5z m-5551 -41 c13 -17 14 -17 8 2 -6 16 -5 18 7 8
16 -15 33 -17 24 -3 -4 6 1 7 11 3 15 -5 15 -7 0 -15 -13 -7 -13 -12 -3 -22
14 -16 36 -15 46 3 9 14 31 -61 31 -106 0 -69 -5 -73 -91 -73 l-79 0 0 98 c0
63 4 102 12 110 16 16 18 15 34 -5z m5551 1 c-3 -3 -12 -4 -19 -1 -8 3 -5 6 6
6 11 1 17 -2 13 -5z m3 -24 c0 -5 -4 -10 -10 -10 -5 0 -10 5 -10 10 0 6 5 10
10 10 6 0 10 -4 10 -10z m28 -27 c-10 -2 -28 -2 -40 0 -13 2 -5 4 17 4 22 1
32 -1 23 -4z m-31 -19 c-3 -3 -12 -4 -19 -1 -8 3 -5 6 6 6 11 1 17 -2 13 -5z
m46 -1 c-7 -2 -19 -2 -25 0 -7 3 -2 5 12 5 14 0 19 -2 13 -5z m-2120 -10 c-7
-2 -19 -2 -25 0 -7 3 -2 5 12 5 14 0 19 -2 13 -5z m94 -65 c-2 -13 -4 -3 -4
22 0 25 2 35 4 23 2 -13 2 -33 0 -45z m1936 55 c-13 -2 -33 -2 -45 0 -13 2 -3
4 22 4 25 0 35 -2 23 -4z m70 0 c-7 -2 -19 -2 -25 0 -7 3 -2 5 12 5 14 0 19
-2 13 -5z m-3218 -13 c3 -5 1 -10 -4 -10 -6 0 -11 5 -11 10 0 6 2 10 4 10 3 0
8 -4 11 -10z m1308 -7 c-13 -2 -33 -2 -45 0 -13 2 -3 4 22 4 25 0 35 -2 23 -4z
m1650 0 c-7 -2 -19 -2 -25 0 -7 3 -2 5 12 5 14 0 19 -2 13 -5z m-3013 -17 c0
-3 -4 -8 -10 -11 -5 -3 -10 -1 -10 4 0 6 5 11 10 11 6 0 10 -2 10 -4z m3013
-3 c-7 -2 -21 -2 -30 0 -10 3 -4 5 12 5 17 0 24 -2 18 -5z m84 1 c-3 -3 -12
-4 -19 -1 -8 3 -5 6 6 6 11 1 17 -2 13 -5z m-3052 -57 c24 -3 22 -4 -12 -6
-35 -1 -41 2 -36 15 3 9 8 11 12 6 3 -6 20 -12 36 -15z m90 1 c-1 -12 -8 -22
-17 -24 -10 -1 -14 5 -13 20 3 27 3 26 18 26 8 0 13 -9 12 -22z m2895 -64 c0
-2 -13 -4 -30 -4 -16 0 -30 4 -30 8 0 5 14 7 30 4 17 -2 30 -6 30 -8z m-7 -21
c-7 -2 -19 -2 -25 0 -7 3 -2 5 12 5 14 0 19 -2 13 -5z m-1870 -154 c-1 -44 -4
-83 -7 -86 -3 -4 -6 36 -6 87 0 51 3 90 7 87 3 -4 6 -43 6 -88z m1875 74 c-10
-2 -28 -2 -40 0 -13 2 -5 4 17 4 22 1 32 -1 23 -4z m-1708 -17 c0 -3 -4 -8
-10 -11 -5 -3 -10 -1 -10 4 0 6 5 11 10 11 6 0 10 -2 10 -4z m1387 -98 c-2
-13 -4 -3 -4 22 0 25 2 35 4 23 2 -13 2 -33 0 -45z m-1424 15 c-13 -2 -33 -2
-45 0 -13 2 -3 4 22 4 25 0 35 -2 23 -4z m1744 -75 c-2 -13 -4 -5 -4 17 -1 22
1 32 4 23 2 -10 2 -28 0 -40z m-1700 10 c-3 -7 -5 -2 -5 12 0 14 2 19 5 13 2
-7 2 -19 0 -25z m40 -5 c-3 -10 -5 -4 -5 12 0 17 2 24 5 18 2 -7 2 -21 0 -30z
m1661 -60 c-10 -2 -26 -2 -35 0 -10 3 -2 5 17 5 19 0 27 -2 18 -5z m-58 -59
c0 -2 -7 -4 -15 -4 -8 0 -15 4 -15 10 0 5 7 7 15 4 8 -4 15 -8 15 -10z m-64
-20 c-4 -9 -9 -15 -11 -12 -3 3 -3 13 1 22 4 9 9 15 11 12 3 -3 3 -13 -1 -22z
m4024 -14 c-13 -9 -13 -10 0 -10 13 0 13 -1 0 -10 -8 -5 -19 -10 -25 -10 -5 0
-3 5 5 10 12 8 12 10 -5 11 l-20 0 20 9 c27 12 43 12 25 0z m-5465 -10 c-3 -6
-42 -9 -88 -8 l-82 2 85 6 c47 3 86 7 88 8 2 1 0 -2 -3 -8z m1518 -27 c-7 -2
-19 -2 -25 0 -7 3 -2 5 12 5 14 0 19 -2 13 -5z m-1746 -19 c-3 -3 -12 -4 -19
-1 -8 3 -5 6 6 6 11 1 17 -2 13 -5z m96 -1 c-7 -2 -19 -2 -25 0 -7 3 -2 5 12
5 14 0 19 -2 13 -5z m134 1 c-3 -3 -12 -4 -19 -1 -8 3 -5 6 6 6 11 1 17 -2 13
-5z m-111 -23 c-5 -8 -56 -3 -56 5 0 2 14 4 31 4 16 0 28 -4 25 -9z m167 2
c-13 -2 -33 -2 -45 0 -13 2 -3 4 22 4 25 0 35 -2 23 -4z m4732 -16 c-26 -17
-75 -38 -75 -32 0 6 72 44 85 45 5 0 1 -6 -10 -13z m614 -1 c-2 -2 -15 -7 -29
-10 l-25 -7 25 15 c21 12 42 14 29 2z m-3909 -36 c5 0 7 -7 4 -15 -4 -8 -2
-15 4 -15 5 0 12 -7 16 -15 4 -12 2 -13 -13 -6 -10 6 -21 7 -25 4 -3 -3 -5 14
-5 38 1 24 3 36 6 27 2 -10 8 -18 13 -18z m-1627 -10 c-3 -11 -7 -20 -8 -20
-1 0 -5 9 -8 20 -3 12 0 20 8 20 8 0 11 -8 8 -20z m96 11 l24 -6 -25 -12 c-21
-9 -28 -8 -41 8 -16 18 -16 19 1 18 9 -1 28 -4 41 -8z m108 -41 c2 -17 -4 -20
-43 -20 -24 0 -44 4 -44 9 0 4 12 6 28 4 l27 -4 -25 15 -25 15 40 1 c34 0 41
-3 42 -20z m-129 -18 c2 -7 -2 -10 -12 -6 -9 3 -16 11 -16 16 0 13 23 5 28
-10z m-2611 -18 c-3 -3 -12 -4 -19 -1 -8 3 -5 6 6 6 11 1 17 -2 13 -5z m2733
-4 c-9 -6 -11 -13 -5 -17 6 -5 11 -16 13 -25 3 -16 -6 -18 -72 -18 -41 0 -83
-3 -93 -6 -14 -5 -15 -4 -4 4 11 8 9 11 -10 14 -13 2 13 3 58 1 48 -2 84 1 88
7 4 6 -19 11 -62 12 l-68 1 55 7 55 7 -55 3 -55 3 45 7 c73 11 127 11 110 0z
m-167 -7 c-7 -2 -19 -2 -25 0 -7 3 -2 5 12 5 14 0 19 -2 13 -5z m95 -70 c-10
-2 -26 -2 -35 0 -10 3 -2 5 17 5 19 0 27 -2 18 -5z m75 0 c-7 -2 -21 -2 -30 0
-10 3 -4 5 12 5 17 0 24 -2 18 -5z m1369 -48 c3 -13 1 -22 -3 -19 -9 5 -13 44
-5 44 2 0 6 -11 8 -25z m135 19 c-3 -3 -12 -4 -19 -1 -8 3 -5 6 6 6 11 1 17
-2 13 -5z m-1577 -14 c0 -5 -4 -10 -10 -10 -5 0 -10 5 -10 10 0 6 5 10 10 10
6 0 10 -4 10 -10z m1827 4 c-3 -3 -12 -4 -19 -1 -8 3 -5 6 6 6 11 1 17 -2 13
-5z m-1830 -50 c-3 -3 -12 -4 -19 -1 -8 3 -5 6 6 6 11 1 17 -2 13 -5z m-9 -21
c-10 -2 -26 -2 -35 0 -10 3 -2 5 17 5 19 0 27 -2 18 -5z m-105 -20 c-7 -2 -21
-2 -30 0 -10 3 -4 5 12 5 17 0 24 -2 18 -5z m100 0 c-13 -2 -33 -2 -45 0 -13
2 -3 4 22 4 25 0 35 -2 23 -4z m17 -22 c0 -6 -17 -7 -37 -4 -52 8 -54 13 -5
13 23 0 42 -4 42 -9z m5302 -156 c-6 -14 -8 -25 -3 -25 17 0 -1 -40 -18 -41
-14 0 -14 -1 0 -7 12 -6 16 -22 15 -74 -1 -54 2 -68 14 -68 13 0 13 -1 0 -10
-12 -8 -11 -10 7 -10 16 0 20 -5 16 -20 -4 -15 -11 -19 -32 -14 -20 4 -23 3
-11 -5 13 -10 13 -11 0 -12 -9 0 -10 -2 -3 -5 6 -3 26 2 43 11 30 16 32 15 37
-4 6 -23 19 -28 25 -9 5 15 40 17 50 3 4 -5 8 -1 8 10 0 17 2 17 10 5 9 -13
10 -13 10 0 0 13 1 13 10 0 7 -11 10 -11 10 -2 0 7 5 10 10 7 6 -3 10 0 10 7
0 9 3 9 10 -2 7 -11 10 -11 10 -2 0 7 5 10 10 7 6 -4 8 -10 5 -14 -2 -5 7 -6
21 -3 14 2 28 11 31 18 3 8 15 14 28 14 12 0 28 7 35 15 9 11 17 12 30 5 10
-6 23 -10 29 -10 15 0 14 18 -1 23 -16 5 17 1 61 -8 19 -4 31 -3 28 2 -3 5 19
10 50 11 30 1 63 7 74 12 14 8 17 7 13 -3 -4 -11 7 -13 52 -9 41 3 55 2 50 -7
-4 -6 -1 -11 6 -11 9 0 9 -3 2 -8 -6 -4 -11 -42 -12 -92 -1 -174 3 -159 -42
-166 -22 -4 -40 -11 -40 -16 0 -5 -4 -6 -10 -3 -5 3 -10 1 -10 -4 0 -6 -11
-11 -25 -11 -17 0 -25 -6 -25 -17 0 -13 -3 -14 -8 -6 -6 9 -12 7 -22 -7 -8
-11 -28 -22 -45 -25 -176 -28 -240 -38 -300 -50 -38 -7 -88 -16 -110 -19 -22
-3 -78 -12 -125 -21 -84 -15 -336 -55 -349 -55 -4 0 -6 52 -6 116 l0 116 80
19 c118 29 155 41 149 50 -3 5 1 7 8 4 25 -9 38 11 42 65 3 29 11 57 18 61 10
7 10 9 -2 9 -12 0 -15 15 -16 68 -1 40 3 70 10 74 8 6 8 8 -1 8 -21 0 -1 39
26 50 l26 10 -26 -5 c-25 -4 -27 -2 -26 28 1 17 8 38 17 45 8 8 9 11 3 7 -7
-3 -13 -2 -13 3 0 15 73 42 84 31 6 -5 5 -18 -2 -34z m-5311 25 c5 0 9 -4 9
-10 0 -12 -47 -13 -54 -1 -8 12 6 22 22 16 7 -3 18 -5 23 -5z m-1772 -113 c7
-6 20 -12 27 -13 8 -1 43 -16 77 -32 81 -39 197 -89 222 -96 11 -3 3 -3 -18 0
-20 3 -65 18 -100 34 -34 17 -68 30 -74 30 -7 0 -13 5 -13 11 0 6 -9 9 -20 6
-12 -3 -18 -1 -14 5 4 6 -2 8 -17 3 -19 -5 -21 -4 -9 4 12 8 12 11 2 11 -21 0
-85 32 -107 53 -20 19 -20 19 5 7 14 -7 31 -17 39 -23z m3170 -38 c14 -39 14
-49 1 -49 -5 0 -10 9 -10 19 0 11 -4 23 -10 26 -12 8 -13 35 -1 35 5 0 14 -14
20 -31z m-3179 1 c13 -8 13 -10 -2 -10 -9 0 -20 5 -23 10 -8 13 5 13 25 0z
m1790 -10 c0 -5 -7 -10 -15 -10 -8 0 -15 5 -15 10 0 6 7 10 15 10 8 0 15 -4
15 -10z m-1725 -28 c-3 -3 -11 0 -18 7 -9 10 -8 11 6 5 10 -3 15 -9 12 -12z
m1422 -4 c-3 -8 -6 -5 -6 6 -1 11 2 17 5 13 3 -3 4 -12 1 -19z m20 0 c-3 -8
-6 -5 -6 6 -1 11 2 17 5 13 3 -3 4 -12 1 -19z m303 2 c0 -5 -9 -10 -20 -10
-12 0 -20 -7 -20 -17 0 -15 -2 -16 -10 -3 -5 9 -5 19 2 27 12 15 48 17 48 3z
m-1730 -30 c8 -5 12 -11 9 -14 -3 -3 -14 1 -25 9 -21 16 -8 20 16 5z m1737 4
c-3 -3 -12 -4 -19 -1 -8 3 -5 6 6 6 11 1 17 -2 13 -5z m4674 -1 c-9 -4 -10 -8
-2 -12 6 -4 -6 -7 -27 -8 l-37 0 30 13 c17 7 35 13 40 13 6 0 4 -3 -4 -6z
m-6240 -29 c35 -14 78 -32 95 -39 18 -8 51 -24 75 -34 27 -12 36 -20 24 -20
-11 0 -31 6 -45 14 -14 8 -31 14 -39 15 -11 0 -11 -3 0 -17 13 -16 12 -17 -3
-5 -9 8 -27 11 -40 8 -13 -3 -17 -3 -9 0 11 5 11 8 0 16 -9 5 -3 6 16 2 50
-11 17 11 -63 41 -40 16 -75 32 -78 37 -7 12 -4 11 67 -18z m1376 -16 c-3 -7
-5 -2 -5 12 0 14 2 19 5 13 2 -7 2 -19 0 -25z m160 10 c-3 -8 -6 -5 -6 6 -1
11 2 17 5 13 3 -3 4 -12 1 -19z m-1606 -14 c17 -8 29 -17 27 -20 -3 -2 -22 5
-43 16 -22 11 -34 20 -27 20 7 0 27 -7 43 -16z m1487 -16 c11 -14 10 -16 -7
-11 -12 3 -17 11 -14 19 3 8 6 14 7 12 1 -2 7 -11 14 -20z m-1248 -8 c0 -5 -2
-10 -4 -10 -3 0 -8 5 -11 10 -3 6 -1 10 4 10 6 0 11 -4 11 -10z m-146 -15 c25
-19 17 -19 -25 0 -24 10 -28 14 -14 14 11 0 29 -6 39 -14z m191 -5 c3 -6 -1
-7 -9 -4 -18 7 -21 14 -7 14 6 0 13 -4 16 -10z m40 -20 c3 -6 -1 -7 -9 -4 -18
7 -21 14 -7 14 6 0 13 -4 16 -10z m-283 -92 l2 -93 6 85 c5 72 7 78 10 35 l3
-50 4 42 c3 32 8 41 19 36 7 -3 14 -15 14 -27 0 -11 5 -28 11 -36 8 -11 9 -7
6 18 -4 32 -3 33 27 26 17 -3 33 -10 34 -15 2 -5 8 -7 13 -3 5 3 8 -12 8 -33
-1 -38 -1 -38 -9 -8 -8 30 -8 30 -9 -7 0 -22 3 -37 9 -35 7 1 13 -23 15 -57 6
-69 -3 -69 -15 1 l-8 48 -1 -47 -1 -47 -36 15 c-35 15 -36 15 -30 -8 3 -13 3
-17 0 -10 -3 6 -13 12 -22 13 -11 0 -12 2 -4 6 6 2 12 9 12 14 0 14 -28 11
-33 -3 -3 -7 -6 -1 -6 14 -1 21 -5 25 -21 21 -11 -3 -20 0 -20 6 0 6 -9 11
-20 11 -11 0 -20 5 -20 11 0 6 -7 9 -15 5 -12 -4 -15 3 -15 29 0 39 16 48 23
13 3 -17 5 -14 6 9 1 25 -2 31 -14 27 -10 -4 -15 0 -15 15 0 25 -2 24 38 10
19 -6 32 -19 35 -32 3 -15 5 -11 6 11 0 18 -3 31 -7 28 -13 -8 -35 11 -27 23
5 9 10 9 21 0 11 -9 14 -8 14 4 0 8 -6 18 -12 20 -8 3 -6 6 5 6 15 1 17 -10
19 -91z m248 62 c8 -5 11 -10 5 -10 -5 0 -17 5 -25 10 -8 5 -10 10 -5 10 6 0
17 -5 25 -10z m71 -23 c-10 -9 -11 -8 -5 6 3 10 9 15 12 12 3 -3 0 -11 -7 -18z
m104 13 c3 -5 2 -10 -4 -10 -5 0 -13 5 -16 10 -3 6 -2 10 4 10 5 0 13 -4 16
-10z m52 -22 c-3 -7 -5 -2 -5 12 0 14 2 19 5 13 2 -7 2 -19 0 -25z m-60 -20
c-3 -8 -6 -5 -6 6 -1 11 2 17 5 13 3 -3 4 -12 1 -19z m2700 6 c-3 -3 -12 -4
-19 -1 -8 3 -5 6 6 6 11 1 17 -2 13 -5z m-2627 -38 c0 -3 -7 -3 -15 0 -8 4
-15 13 -15 21 0 12 2 12 15 -1 8 -8 15 -17 15 -20z m777 12 c-3 -8 -6 -5 -6 6
-1 11 2 17 5 13 3 -3 4 -12 1 -19z m-916 -97 c6 10 9 8 10 -11 0 -23 1 -23 9
-5 8 18 9 18 10 -5 2 -24 3 -23 10 5 6 23 8 12 9 -42 0 -40 4 -73 9 -73 4 0 6
34 5 75 -1 47 2 73 8 69 6 -3 8 -13 5 -21 -3 -8 -3 -20 1 -26 9 -14 13 -64 8
-92 -3 -14 -13 -20 -35 -21 -18 -1 -30 4 -30 11 0 8 -8 11 -20 8 -19 -5 -20
-1 -19 78 1 46 4 73 6 60 4 -19 7 -21 14 -10z m209 -10 c0 -13 -29 -8 -34 5
-3 7 2 10 15 7 10 -3 19 -9 19 -12z m-63 -83 c-3 -7 -5 -2 -5 12 0 14 2 19 5
13 2 -7 2 -19 0 -25z m83 15 c0 -15 -2 -15 -9 -4 -7 11 -10 10 -14 -5 -4 -16
-5 -16 -6 4 -1 13 5 22 14 22 8 0 15 -8 15 -17z m-790 -32 c23 -7 22 -8 -14
-15 -21 -4 -41 -5 -44 -2 -3 3 6 6 19 7 l24 1 -25 8 c-20 6 -21 8 -5 8 11 0
31 -3 45 -7z m1057 -7 c-3 -3 -12 -4 -19 -1 -8 3 -5 6 6 6 11 1 17 -2 13 -5z
m-532 -24 c4 -6 -5 -10 -20 -10 -15 0 -24 4 -20 10 3 6 12 10 20 10 8 0 17 -4
20 -10z m148 -11 c-8 -8 -13 -7 -18 2 -5 8 -4 10 3 5 7 -4 12 -2 12 5 0 7 3 9
7 6 4 -4 2 -12 -4 -18z m353 6 c-3 -10 1 -15 11 -15 9 0 14 -3 10 -6 -12 -12
-37 5 -31 21 3 8 8 15 11 15 3 0 3 -7 -1 -15z m-291 -13 c-3 -3 -11 0 -18 7
-9 10 -8 11 6 5 10 -3 15 -9 12 -12z m9 -16 c15 6 22 -6 10 -19 -8 -8 -54 14
-54 26 0 5 6 4 14 -2 7 -6 21 -9 30 -5z m163 -28 c-3 -7 -5 -2 -5 12 0 14 2
19 5 13 2 -7 2 -19 0 -25z m50 -10 c-3 -8 -6 -5 -6 6 -1 11 2 17 5 13 3 -3 4
-12 1 -19z m51 -9 c3 -12 2 -12 -6 0 -6 8 -15 10 -22 6 -9 -5 -11 -4 -6 4 10
15 28 10 34 -10z m52 -5 c0 -13 -3 -14 -13 -5 -8 6 -17 8 -20 4 -4 -3 -7 -1
-7 5 0 7 9 12 20 12 12 0 20 -7 20 -16z m60 -14 c0 -5 -2 -10 -4 -10 -3 0 -8
5 -11 10 -3 6 -1 10 4 10 6 0 11 -4 11 -10z m53 -7 c-7 -2 -19 -2 -25 0 -7 3
-2 5 12 5 14 0 19 -2 13 -5z m175 0 c-10 -2 -28 -2 -40 0 -13 2 -5 4 17 4 22
1 32 -1 23 -4z m-5 -20 c-24 -2 -62 -2 -85 0 -24 2 -5 4 42 4 47 0 66 -2 43
-4z m-468 -33 c3 -5 -1 -10 -9 -10 -9 0 -16 5 -16 10 0 6 4 10 9 10 6 0 13 -4
16 -10z m2512 -227 c-3 -10 -5 -4 -5 12 0 17 2 24 5 18 2 -7 2 -21 0 -30z
m-3717 -13 c0 -5 -4 -10 -10 -10 -5 0 -10 5 -10 10 0 6 5 10 10 10 6 0 10 -4
10 -10z m3680 0 c0 -5 -5 -10 -11 -10 -5 0 -7 5 -4 10 3 6 8 10 11 10 2 0 4
-4 4 -10z m97 -232 c-3 -8 -6 -5 -6 6 -1 11 2 17 5 13 3 -3 4 -12 1 -19z
m-3684 -45 c-13 -2 -33 -2 -45 0 -13 2 -3 4 22 4 25 0 35 -2 23 -4z m-10 -20
c-18 -2 -48 -2 -65 0 -18 2 -4 4 32 4 36 0 50 -2 33 -4z m10 -50 c-13 -2 -33
-2 -45 0 -13 2 -3 4 22 4 25 0 35 -2 23 -4z m3814 -49 c-3 -3 -12 -4 -19 -1
-8 3 -5 6 6 6 11 1 17 -2 13 -5z m-2337 -19 c0 -12 -13 -15 -62 -13 l-63 2 58
3 c31 2 57 8 57 13 0 6 2 10 5 10 3 0 5 -7 5 -15z m-1500 -19 c0 -3 -4 -8 -10
-11 -5 -3 -10 -1 -10 4 0 6 5 11 10 11 6 0 10 -2 10 -4z m1328 -13 c-32 -2
-84 -2 -115 0 -32 2 -6 3 57 3 63 0 89 -1 58 -3z m255 0 c-35 -2 -91 -2 -125
0 -35 2 -7 3 62 3 69 0 97 -1 63 -3z m151 -1 c2 -4 1 -14 -5 -22 -6 -10 -9
-11 -9 -2 0 6 -12 12 -26 12 -14 0 -23 4 -19 10 7 12 52 13 59 2z m-1772 -24
c-7 -7 -12 -8 -12 -2 0 14 12 26 19 19 2 -3 -1 -11 -7 -17z m3835 16 c-3 -3
-12 -4 -19 -1 -8 3 -5 6 6 6 11 1 17 -2 13 -5z m-2464 -11 c-7 -2 -19 -2 -25
0 -7 3 -2 5 12 5 14 0 19 -2 13 -5z m54 1 c-3 -3 -12 -4 -19 -1 -8 3 -5 6 6 6
11 1 17 -2 13 -5z m231 -1 c-15 -2 -42 -2 -60 0 -18 2 -6 4 27 4 33 0 48 -2
33 -4z m482 -47 c0 -11 -19 -15 -25 -6 -3 5 1 10 9 10 9 0 16 -2 16 -4z m754
-4 c3 -5 -6 -15 -19 -22 -14 -7 -25 -17 -25 -22 0 -10 -26 -39 -35 -38 -20 1
-26 -3 -42 -30 -9 -16 -21 -30 -26 -30 -12 0 79 116 106 135 24 17 34 19 41 7z
m-2969 -52 c-3 -5 -12 -10 -18 -10 -7 0 -6 4 3 10 19 12 23 12 15 0z m925 -21
c0 -5 -7 -9 -15 -9 -15 0 -20 12 -9 23 8 8 24 -1 24 -14z m-795 -20 c10 -15
-1 -23 -20 -15 -9 3 -13 10 -10 16 8 13 22 13 30 -1z m-155 -3 c0 -2 -15 -6
-34 -8 -19 -2 -32 0 -30 4 5 8 64 12 64 4z m893 -3 c-7 -2 -21 -2 -30 0 -10 3
-4 5 12 5 17 0 24 -2 18 -5z m2021 -5 c-19 -32 -57 -78 -61 -74 -3 3 10 23 28
45 31 40 48 54 33 29z m-2897 -14 c-3 -3 -12 -4 -19 -1 -8 3 -5 6 6 6 11 1 17
-2 13 -5z m823 -4 c0 -6 -23 -9 -52 -8 l-53 1 45 7 c25 4 48 8 53 8 4 1 7 -2
7 -8z m-850 -20 c0 -5 -4 -10 -10 -10 -5 0 -10 5 -10 10 0 6 5 10 10 10 6 0
10 -4 10 -10z m155 -11 c-22 -11 -50 -27 -62 -35 -13 -8 -23 -10 -23 -4 0 5 6
10 13 10 8 0 7 3 -3 10 -8 5 -11 12 -7 17 5 4 12 2 16 -5 6 -10 13 -11 34 -1
15 7 24 16 21 20 -3 5 7 9 23 9 27 0 26 -1 -12 -21z m-216 7 c-2 -2 -24 -6
-48 -9 -29 -4 -40 -2 -30 4 13 8 88 14 78 5z m111 -6 c-13 -9 -13 -11 0 -21
13 -9 12 -10 -3 -5 -10 3 -23 6 -28 6 -5 0 -4 7 3 15 7 8 20 14 28 14 13 1 13
0 0 -9z m-113 -16 c-3 -3 -12 -4 -19 -1 -8 3 -5 6 6 6 11 1 17 -2 13 -5z
m4432 -28 c0 -7 -2 -7 -5 1 -3 7 -11 11 -17 9 -7 -1 -9 -1 -4 1 4 3 4 10 0 16
-4 7 1 6 10 -2 9 -7 17 -19 16 -25z m-4552 8 c-3 -3 -12 -4 -19 -1 -8 3 -5 6
6 6 11 1 17 -2 13 -5z m60 0 c-3 -3 -12 -4 -19 -1 -8 3 -5 6 6 6 11 1 17 -2
13 -5z m56 -1 c-7 -2 -19 -2 -25 0 -7 3 -2 5 12 5 14 0 19 -2 13 -5z m80 0
c-13 -2 -33 -2 -45 0 -13 2 -3 4 22 4 25 0 35 -2 23 -4z m-90 -20 c-13 -2 -35
-2 -50 0 -16 2 -5 4 22 4 28 0 40 -2 28 -4z m90 0 c-13 -2 -33 -2 -45 0 -13 2
-3 4 22 4 25 0 35 -2 23 -4z m-60 -20 c-13 -2 -35 -2 -50 0 -16 2 -5 4 22 4
28 0 40 -2 28 -4z m64 1 c-3 -3 -12 -4 -19 -1 -8 3 -5 6 6 6 11 1 17 -2 13 -5z
m4428 -24 c18 -20 17 -20 -26 -20 -39 1 -42 2 -26 14 14 11 15 15 5 19 -7 3
-4 6 8 6 11 1 29 -8 39 -19z m-4447 5 c-15 -12 -49 -25 -44 -16 10 16 -9 14
-23 -3 -6 -7 -46 -23 -89 -36 -42 -12 -94 -31 -116 -42 -21 -11 -47 -18 -57
-15 -10 3 -20 -1 -23 -9 -3 -9 0 -11 12 -7 11 4 14 3 7 -4 -14 -14 -75 -25
-75 -13 0 6 -10 9 -22 9 -17 -1 -19 -2 -5 -6 9 -2 17 -12 17 -21 0 -15 -2 -15
-10 -2 -6 10 -10 11 -10 3 0 -7 -11 -13 -24 -13 -43 0 -38 -18 6 -26 24 -4 35
-9 25 -12 -10 -2 -16 -9 -14 -16 4 -9 -6 -9 -41 -1 l-45 10 34 6 34 6 -35 2
c-19 1 -30 5 -23 9 6 4 -29 7 -78 7 -49 0 -89 -3 -89 -7 0 -9 -70 -10 -122 -2
-28 5 -36 11 -35 26 1 21 13 24 112 33 39 3 95 9 125 14 l55 8 -47 2 c-28 0
-48 6 -48 12 0 7 21 10 58 8 31 -1 71 -1 87 0 l30 1 -25 13 c-14 8 -28 9 -31
4 -4 -5 -17 -4 -30 4 l-24 13 30 7 c17 4 24 7 16 8 -8 0 -12 3 -9 6 8 8 78
-24 78 -35 0 -17 58 -11 68 7 9 15 11 15 27 -1 10 -9 20 -14 24 -10 3 4 0 9
-6 11 -20 7 -15 22 6 16 10 -2 18 -12 17 -21 0 -9 7 -18 17 -20 12 -2 17 3 17
18 0 17 4 20 23 15 12 -4 24 -7 27 -7 63 -1 43 16 -23 18 -29 2 -58 3 -66 3
-11 1 -11 4 -1 16 9 11 27 14 64 11 28 -2 36 -1 17 1 -71 9 -7 19 125 20 74 0
134 0 132 -2z m2467 -20 c-27 -7 -52 -11 -54 -9 -2 2 2 4 10 5 8 0 6 4 -6 9
-14 6 -2 9 40 9 l60 0 -50 -14z m-3055 -35 c0 -5 -5 -10 -11 -10 -5 0 -7 5 -4
10 3 6 8 10 11 10 2 0 4 -4 4 -10z m3017 4 c-3 -3 -12 -4 -19 -1 -8 3 -5 6 6
6 11 1 17 -2 13 -5z m-2737 -24 c0 -5 -4 -10 -10 -10 -5 0 -10 5 -10 10 0 6 5
10 10 10 6 0 10 -4 10 -10z m-390 -42 c0 -5 -4 -8 -10 -8 -5 0 -10 10 -10 23
0 18 2 19 10 7 5 -8 10 -18 10 -22z m3205 -8 c4 -6 -7 -10 -27 -9 -31 1 -32 1
-8 9 14 4 26 8 27 9 1 1 5 -3 8 -9z m-3302 -7 c-7 -2 -19 -2 -25 0 -7 3 -2 5
12 5 14 0 19 -2 13 -5z m3417 -24 c0 -5 -2 -9 -4 -9 -2 0 -12 -3 -22 -7 -11
-4 -15 -3 -10 5 4 8 -14 12 -61 15 -65 3 -65 4 15 4 45 0 82 -4 82 -8z m45
-19 c-3 -5 -10 -10 -16 -10 -5 0 -9 5 -9 10 0 6 7 10 16 10 8 0 12 -4 9 -10z
m-3537 -37 c-10 -2 -28 -2 -40 0 -13 2 -5 4 17 4 22 1 32 -1 23 -4z m317 -2
c-16 -7 -12 -10 23 -16 24 -4 56 -14 70 -22 26 -14 25 -14 -23 -8 -30 3 -45 2
-37 -3 8 -5 -10 -7 -45 -4 -32 2 -63 9 -70 14 -6 5 -33 7 -60 4 l-48 -5 50 13
c28 8 65 15 83 15 19 1 31 5 27 11 -4 6 6 10 22 9 24 0 25 -1 8 -8z m3128 -10
c-3 -11 -11 -17 -19 -14 -10 4 -11 8 -1 19 17 19 26 17 20 -5z m128 -8 c-12
-20 -14 -14 -5 12 4 9 9 14 11 11 3 -2 0 -13 -6 -23z m-3494 11 c-3 -3 -12 -4
-19 -1 -8 3 -5 6 6 6 11 1 17 -2 13 -5z m3344 -94 c-7 -36 -9 -39 -10 -15 -1
33 11 85 16 70 1 -6 -1 -30 -6 -55z m-3151 10 c18 -12 2 -12 -25 0 -13 6 -15
9 -5 9 8 0 22 -4 30 -9z m125 1 l-20 -4 20 -9 c14 -6 12 -6 -10 -2 -16 4 -46
10 -65 14 -27 6 -21 7 30 6 36 0 56 -2 45 -5z m-158 -27 c-3 -3 -12 -4 -19 -1
-8 3 -5 6 6 6 11 1 17 -2 13 -5z m218 -14 c3 -5 15 -6 28 -1 14 6 26 4 33 -3
9 -10 5 -15 -17 -23 -16 -6 -31 -8 -34 -3 -7 11 -45 1 -45 -12 0 -5 5 -6 10
-3 6 3 20 3 32 -1 43 -13 -9 -24 -139 -29 -119 -5 -125 -4 -90 9 21 8 42 18
45 22 4 4 -2 4 -13 0 -11 -5 -38 -10 -60 -12 l-40 -3 35 8 c19 5 60 14 90 20
30 6 73 17 95 25 48 18 62 19 70 6z m5562 4 c-3 -3 -12 -4 -19 -1 -8 3 -5 6 6
6 11 1 17 -2 13 -5z m-5697 -14 c-14 -4 -38 -8 -55 -8 -29 1 -29 1 5 8 50 11
83 11 50 0z m5693 -7 c-7 -2 -19 -2 -25 0 -7 3 -2 5 12 5 14 0 19 -2 13 -5z
m-5786 -9 c-3 -3 -12 -4 -19 -1 -8 3 -5 6 6 6 11 1 17 -2 13 -5z m-44 -11 c-7
-2 -19 -2 -25 0 -7 3 -2 5 12 5 14 0 19 -2 13 -5z m3244 -70 c-2 -16 -4 -5 -4
22 0 28 2 40 4 28 2 -13 2 -35 0 -50z m2340 31 c-3 -3 -12 -4 -19 -1 -8 3 -5
6 6 6 11 1 17 -2 13 -5z m76 -1 c-13 -2 -33 -2 -45 0 -13 2 -3 4 22 4 25 0 35
-2 23 -4z m106 -9 c40 -8 40 -24 0 -24 -16 0 -28 4 -24 9 3 5 -9 12 -27 14
-27 3 -28 4 -7 5 15 1 41 -1 58 -4z m-89 -14 c0 -5 -9 -10 -21 -10 -11 0 -17
5 -14 10 3 6 13 10 21 10 8 0 14 -4 14 -10z m233 3 c-7 -2 -21 -2 -30 0 -10 3
-4 5 12 5 17 0 24 -2 18 -5z m-110 -30 c-7 -2 -21 -2 -30 0 -10 3 -4 5 12 5
17 0 24 -2 18 -5z m-5686 -269 c-3 -3 -12 -4 -19 -1 -8 3 -5 6 6 6 11 1 17 -2
13 -5z m-140 -10 c-3 -3 -12 -4 -19 -1 -8 3 -5 6 6 6 11 1 17 -2 13 -5z m86
-1 c-13 -2 -33 -2 -45 0 -13 2 -3 4 22 4 25 0 35 -2 23 -4z m-94 -17 c-2 -2
-20 -6 -39 -10 -25 -4 -31 -3 -20 4 14 9 69 15 59 6z m104 -3 c-18 -2 -48 -2
-65 0 -18 2 -4 4 32 4 36 0 50 -2 33 -4z m31 -22 c4 -5 -3 -7 -14 -4 -23 6
-26 13 -6 13 8 0 17 -4 20 -9z m-59 -131 c56 -8 40 -12 -74 -15 -81 -3 -114 2
-105 16 6 11 109 10 179 -1z"/>
<path d="M9331 9797 c-13 -21 -12 -21 5 -5 10 10 16 20 13 22 -3 3 -11 -5 -18
-17z"/>
<path d="M9184 9388 c-10 -13 -12 -18 -5 -11 7 6 21 9 30 6 13 -4 13 -3 2 5
-11 8 -11 10 0 15 8 3 9 6 3 6 -6 1 -19 -9 -30 -21z"/>
<path d="M3890 6835 c0 -15 4 -24 10 -20 6 3 10 12 10 20 0 8 -4 17 -10 20 -6
4 -10 -5 -10 -20z"/>
<path d="M3870 6790 c-11 -7 -6 -10 20 -10 26 0 31 3 20 10 -8 5 -17 10 -20
10 -3 0 -12 -5 -20 -10z"/>
<path d="M4460 7105 c0 -8 5 -15 10 -15 6 0 10 7 10 15 0 8 -4 15 -10 15 -5 0
-10 -7 -10 -15z"/>
<path d="M5258 6153 c7 -3 16 -2 19 1 4 3 -2 6 -13 5 -11 0 -14 -3 -6 -6z"/>
<path d="M5250 6120 c0 -5 5 -10 10 -10 6 0 10 5 10 10 0 6 -4 10 -10 10 -5 0
-10 -4 -10 -10z"/>
<path d="M5080 6060 c-21 -7 -21 -8 -5 -9 11 0 27 4 35 9 18 11 5 11 -30 0z"/>
<path d="M5078 6023 c7 -3 16 -2 19 1 4 3 -2 6 -13 5 -11 0 -14 -3 -6 -6z"/>
<path d="M4408 5923 c7 -3 16 -2 19 1 4 3 -2 6 -13 5 -11 0 -14 -3 -6 -6z"/>
<path d="M4358 5913 c7 -3 16 -2 19 1 4 3 -2 6 -13 5 -11 0 -14 -3 -6 -6z"/>
<path d="M4298 5903 c7 -3 16 -2 19 1 4 3 -2 6 -13 5 -11 0 -14 -3 -6 -6z"/>
<path d="M3900 5600 c0 -5 5 -10 11 -10 5 0 7 5 4 10 -3 6 -8 10 -11 10 -2 0
-4 -4 -4 -10z"/>
<path d="M3855 5460 c-4 -6 7 -10 25 -10 18 0 29 4 25 10 -3 6 -15 10 -25 10
-10 0 -22 -4 -25 -10z"/>
<path d="M3868 5433 c6 -2 18 -2 25 0 6 3 1 5 -13 5 -14 0 -19 -2 -12 -5z"/>
<path d="M3940 5411 c0 -12 110 -24 175 -19 39 4 32 5 -35 8 l-85 4 85 6 85 6
-112 2 c-64 1 -113 -2 -113 -7z"/>
<path d="M3863 5383 c9 -2 23 -2 30 0 6 3 -1 5 -18 5 -16 0 -22 -2 -12 -5z"/>
<path d="M3944 5366 c1 -26 2 -26 71 -24 l70 2 -62 3 c-99 6 -73 23 33 22 53
0 98 2 102 5 3 3 -35 6 -84 6 -49 0 -99 3 -110 6 -19 5 -22 2 -20 -20z"/>
<path d="M3968 5323 c23 -2 59 -2 80 0 20 2 1 4 -43 4 -44 0 -61 -2 -37 -4z"/>
<path d="M3968 5303 c23 -2 59 -2 80 0 20 2 1 4 -43 4 -44 0 -61 -2 -37 -4z"/>
<path d="M4168 5113 c7 -3 16 -2 19 1 4 3 -2 6 -13 5 -11 0 -14 -3 -6 -6z"/>
<path d="M4328 4903 c6 -2 18 -2 25 0 6 3 1 5 -13 5 -14 0 -19 -2 -12 -5z"/>
<path d="M4285 4880 c-18 -8 -17 -9 8 -9 15 -1 27 4 27 9 0 12 -8 12 -35 0z"/>
<path d="M4338 4883 c7 -3 16 -2 19 1 4 3 -2 6 -13 5 -11 0 -14 -3 -6 -6z"/>
<path d="M4183 4803 c9 -2 23 -2 30 0 6 3 -1 5 -18 5 -16 0 -22 -2 -12 -5z"/>
<path d="M4280 4730 c0 -5 7 -10 16 -10 8 0 12 5 9 10 -3 6 -10 10 -16 10 -5
0 -9 -4 -9 -10z"/>
<path d="M5662 4690 c0 -14 2 -19 5 -12 2 6 2 18 0 25 -3 6 -5 1 -5 -13z"/>
<path d="M5345 4650 c-3 -5 -1 -10 4 -10 6 0 11 5 11 10 0 6 -2 10 -4 10 -3 0
-8 -4 -11 -10z"/>
<path d="M4228 4473 c6 -2 18 -2 25 0 6 3 1 5 -13 5 -14 0 -19 -2 -12 -5z"/>
<path d="M5605 4460 c3 -5 8 -10 11 -10 2 0 4 5 4 10 0 6 -5 10 -11 10 -5 0
-7 -4 -4 -10z"/>
<path d="M5633 4380 c0 -36 2 -50 4 -32 2 17 2 47 0 65 -2 17 -4 3 -4 -33z"/>
<path d="M5606 4383 c9 -65 14 -67 14 -5 0 30 -4 52 -11 52 -7 0 -8 -16 -3
-47z"/>
<path d="M5648 4345 c-4 -49 -10 -102 -14 -117 -4 -17 -2 -28 4 -28 13 0 25
106 20 180 -3 49 -4 45 -10 -35z"/>
<path d="M5420 4388 c0 -7 5 -20 10 -28 8 -12 10 -9 10 13 0 15 -4 27 -10 27
-5 0 -10 -6 -10 -12z"/>
<path d="M4205 4310 c3 -5 13 -10 21 -10 8 0 14 5 14 10 0 6 -9 10 -21 10 -11
0 -17 -4 -14 -10z"/>
<path d="M4180 4266 c0 -8 5 -18 10 -21 6 -3 10 1 10 9 0 8 -4 18 -10 21 -5 3
-10 -1 -10 -9z"/>
<path d="M4222 4218 c8 -12 20 -23 27 -24 6 -1 7 0 1 3 -14 7 -13 30 3 36 6 3
-1 6 -17 6 -27 1 -28 0 -14 -21z"/>
<path d="M4298 4193 c7 -3 16 -2 19 1 4 3 -2 6 -13 5 -11 0 -14 -3 -6 -6z"/>
<path d="M4176 4066 c8 -20 44 -28 44 -9 0 8 5 11 12 7 7 -4 8 -3 4 4 -11 18
-67 16 -60 -2z"/>
<path d="M3975 4030 c3 -5 8 -10 11 -10 2 0 4 5 4 10 0 6 -5 10 -11 10 -5 0
-7 -4 -4 -10z"/>
<path d="M4055 3999 c-4 -11 -4 -23 -1 -26 3 -4 6 1 6 10 0 10 5 17 10 17 6 0
10 5 10 10 0 18 -19 10 -25 -11z"/>
<path d="M4193 3985 c-16 -17 -17 -35 -3 -35 6 0 10 5 10 11 0 7 8 18 18 25
14 11 14 13 2 13 -8 0 -21 -6 -27 -14z"/>
<path d="M4231 3954 c0 -11 3 -14 6 -6 3 7 2 16 -1 19 -3 4 -6 -2 -5 -13z"/>
<path d="M4291 3954 c0 -11 3 -14 6 -6 3 7 2 16 -1 19 -3 4 -6 -2 -5 -13z"/>
<path d="M4154 3937 c3 -10 6 -21 6 -23 0 -2 11 -4 24 -4 26 0 43 16 31 28 -4
4 -10 1 -12 -5 -7 -19 -30 -16 -43 5 -11 16 -11 16 -6 -1z"/>
<path d="M5528 3923 c7 -3 16 -2 19 1 4 3 -2 6 -13 5 -11 0 -14 -3 -6 -6z"/>
<path d="M5556 3825 c4 -8 10 -15 14 -15 4 0 10 7 14 15 4 10 -1 15 -14 15
-13 0 -18 -5 -14 -15z"/>
<path d="M2635 3730 c-3 -5 3 -10 15 -10 12 0 18 5 15 10 -3 6 -10 10 -15 10
-5 0 -12 -4 -15 -10z"/>
<path d="M3861 3624 c0 -11 3 -14 6 -6 3 7 2 16 -1 19 -3 4 -6 -2 -5 -13z"/>
<path d="M3128 3533 c7 -3 16 -2 19 1 4 3 -2 6 -13 5 -11 0 -14 -3 -6 -6z"/>
<path d="M5636 3482 c-13 -12 -5 -22 19 -22 14 0 25 4 25 9 0 10 -36 21 -44
13z"/>
<path d="M3418 3443 c7 -3 16 -2 19 1 4 3 -2 6 -13 5 -11 0 -14 -3 -6 -6z"/>
<path d="M3452 3424 c4 -21 22 -23 26 -1 2 10 -3 17 -13 17 -10 0 -15 -6 -13
-16z"/>
<path d="M3780 3410 c0 -5 10 -10 23 -10 18 0 19 2 7 10 -19 13 -30 13 -30 0z"/>
<path d="M3325 3400 c-8 -14 3 -30 21 -30 8 0 14 5 14 10 0 6 -6 10 -12 10 -9
0 -8 4 2 10 13 8 13 10 -2 10 -9 0 -20 -4 -23 -10z"/>
<path d="M3370 3399 c1 -16 30 -58 30 -43 0 5 5 2 10 -6 6 -10 10 -11 10 -2 0
6 9 12 19 12 11 0 22 -6 24 -12 3 -7 6 -2 6 11 1 13 -2 22 -5 18 -4 -3 -13 0
-21 8 -17 18 -33 19 -33 3 0 -6 -9 -3 -20 7 -15 14 -20 15 -20 4z"/>
<path d="M3483 3366 c1 -19 8 -30 20 -32 9 -1 17 1 17 6 0 4 9 10 20 13 11 3
20 11 20 19 0 9 -3 9 -8 2 -4 -6 -17 -10 -29 -9 -15 1 -23 -4 -24 -14 -1 -9
-5 -2 -9 14 l-9 30 2 -29z"/>
<path d="M3571 3374 c0 -11 3 -14 6 -6 3 7 2 16 -1 19 -3 4 -6 -2 -5 -13z"/>
<path d="M3734 3374 c3 -9 6 -22 6 -30 0 -9 9 -13 25 -12 28 3 31 28 5 35 -13
4 -13 3 0 -7 13 -10 13 -11 0 -7 -8 2 -14 12 -14 21 1 9 -5 16 -13 16 -10 0
-13 -6 -9 -16z"/>
<path d="M3800 3370 c0 -5 7 -10 15 -10 8 0 15 5 15 10 0 6 -7 10 -15 10 -8 0
-15 -4 -15 -10z"/>
<path d="M3333 3353 c9 -2 25 -2 35 0 9 3 1 5 -18 5 -19 0 -27 -2 -17 -5z"/>
<path d="M3585 3350 c-4 -6 -15 -10 -26 -10 -10 0 -19 -4 -19 -10 0 -12 23
-13 36 -1 5 5 18 11 29 13 18 3 18 4 3 10 -10 4 -20 3 -23 -2z"/>
<path d="M3833 3353 c-7 -2 -13 -12 -13 -21 1 -16 2 -16 14 0 7 10 16 15 19
11 4 -3 7 -1 7 5 0 13 -7 14 -27 5z"/>
<path d="M3640 3325 c0 -9 6 -12 15 -9 8 4 12 10 9 15 -8 14 -24 10 -24 -6z"/>
<path d="M3378 3314 c-4 -16 -1 -21 11 -19 9 1 17 10 18 21 3 18 2 17 -6 -1
l-8 -20 -5 20 c-4 19 -4 19 -10 -1z"/>
<path d="M3801 3304 c0 -11 3 -14 6 -6 3 7 2 16 -1 19 -3 4 -6 -2 -5 -13z"/>
<path d="M3685 3300 c3 -5 8 -10 11 -10 2 0 4 5 4 10 0 6 -5 10 -11 10 -5 0
-7 -4 -4 -10z"/>
<path d="M3732 3277 c2 -17 9 -21 28 -19 20 2 22 1 10 -7 -11 -8 -4 -10 30
-10 25 1 37 3 28 6 -10 2 -18 12 -19 21 0 14 -2 13 -9 -3 -7 -16 -9 -17 -9 -3
-1 11 -7 15 -23 11 -17 -3 -19 -2 -10 5 11 7 9 10 -8 15 -17 4 -21 2 -18 -16z"/>
<path d="M3476 3279 c3 -5 14 -9 24 -9 10 0 21 -7 23 -15 4 -12 5 -11 3 2 0 9
-13 20 -29 24 -16 4 -25 3 -21 -2z"/>
<path d="M3418 3273 c7 -3 16 -2 19 1 4 3 -2 6 -13 5 -11 0 -14 -3 -6 -6z"/>
<path d="M3478 3253 c7 -3 16 -2 19 1 4 3 -2 6 -13 5 -11 0 -14 -3 -6 -6z"/>
<path d="M3712 3225 c0 -16 2 -22 5 -12 2 9 2 23 0 30 -3 6 -5 -1 -5 -18z"/>
<path d="M3550 3230 c0 -5 7 -10 16 -10 8 0 12 5 9 10 -3 6 -10 10 -16 10 -5
0 -9 -4 -9 -10z"/>
<path d="M3613 3226 c11 -8 25 -12 33 -9 8 3 14 0 14 -5 0 -6 9 -10 20 -9 22
1 28 23 8 24 -7 1 -31 4 -53 7 -36 6 -38 5 -22 -8z"/>
<path d="M3452 3160 c0 -19 2 -27 5 -17 2 9 2 25 0 35 -3 9 -5 1 -5 -18z"/>
<path d="M3502 3160 c0 -19 2 -27 5 -17 2 9 2 25 0 35 -3 9 -5 1 -5 -18z"/>
<path d="M3692 3165 c0 -16 2 -22 5 -12 2 9 2 23 0 30 -3 6 -5 -1 -5 -18z"/>
<path d="M3713 3155 c0 -22 2 -30 4 -17 2 12 2 30 0 40 -3 9 -5 -1 -4 -23z"/>
<path d="M3520 3170 c0 -5 7 -10 15 -10 8 0 15 5 15 10 0 6 -7 10 -15 10 -8 0
-15 -4 -15 -10z"/>
<path d="M3633 3173 c9 -2 23 -2 30 0 6 3 -1 5 -18 5 -16 0 -22 -2 -12 -5z"/>
<path d="M2100 3161 c0 -7 -4 -9 -10 -6 -5 3 -10 2 -10 -4 0 -5 4 -12 9 -15
10 -6 25 24 16 32 -3 3 -5 0 -5 -7z"/>
<path d="M3731 3144 c-1 -20 27 -54 44 -54 4 0 -1 8 -12 18 -11 9 -23 26 -26
37 -4 19 -5 19 -6 -1z"/>
<path d="M3608 3143 c7 -3 16 -2 19 1 4 3 -2 6 -13 5 -11 0 -14 -3 -6 -6z"/>
<path d="M3768 3143 c7 -3 16 -2 19 1 4 3 -2 6 -13 5 -11 0 -14 -3 -6 -6z"/>
<path d="M3408 3133 c6 -2 18 -2 25 0 6 3 1 5 -13 5 -14 0 -19 -2 -12 -5z"/>
<path d="M3628 3113 c7 -3 16 -2 19 1 4 3 -2 6 -13 5 -11 0 -14 -3 -6 -6z"/>
<path d="M3538 3093 c12 -2 32 -2 45 0 12 2 2 4 -23 4 -25 0 -35 -2 -22 -4z"/>
<path d="M3783 3073 c9 -2 25 -2 35 0 9 3 1 5 -18 5 -19 0 -27 -2 -17 -5z"/>
<path d="M2118 3063 c7 -3 16 -2 19 1 4 3 -2 6 -13 5 -11 0 -14 -3 -6 -6z"/>
<path d="M3538 3063 c12 -2 32 -2 45 0 12 2 2 4 -23 4 -25 0 -35 -2 -22 -4z"/>
<path d="M3610 3050 c-12 -8 -10 -10 8 -10 13 0 20 4 17 10 -7 12 -6 12 -25 0z"/>
<path d="M3765 3055 c23 -8 83 -10 79 -3 -3 4 -24 8 -47 7 -23 0 -37 -2 -32
-4z"/>
<path d="M3598 3023 c45 -2 119 -2 165 0 45 1 8 3 -83 3 -91 0 -128 -2 -82 -3z"/>
<path d="M3558 3003 c23 -2 59 -2 80 0 20 2 1 4 -43 4 -44 0 -61 -2 -37 -4z"/>
<path d="M3698 3003 c12 -2 32 -2 45 0 12 2 2 4 -23 4 -25 0 -35 -2 -22 -4z"/>
<path d="M3803 3003 c15 -2 39 -2 55 0 15 2 2 4 -28 4 -30 0 -43 -2 -27 -4z"/>
<path d="M3473 2983 c20 -2 54 -2 75 0 20 2 3 4 -38 4 -41 0 -58 -2 -37 -4z"/>
<path d="M3618 2983 c12 -2 30 -2 40 0 9 3 -1 5 -23 4 -22 0 -30 -2 -17 -4z"/>
<path d="M3718 2983 c23 -2 61 -2 85 0 23 2 4 4 -43 4 -47 0 -66 -2 -42 -4z"/>
<path d="M3858 2983 c6 -2 18 -2 25 0 6 3 1 5 -13 5 -14 0 -19 -2 -12 -5z"/>
<path d="M3428 2962 c34 -1 62 -7 62 -13 0 -5 10 -7 23 -5 83 17 97 17 98 -1
0 -16 1 -16 9 2 l9 20 1 -20 1 -20 8 20 8 20 5 -20 c4 -19 4 -19 10 2 l6 22
-152 -2 c-83 -1 -123 -3 -88 -5z"/>
<path d="M3693 2963 c9 -2 25 -2 35 0 9 3 1 5 -18 5 -19 0 -27 -2 -17 -5z"/>
<path d="M3788 2963 c17 -2 47 -2 65 0 17 2 3 4 -33 4 -36 0 -50 -2 -32 -4z"/>
<path d="M3418 2943 c7 -3 16 -2 19 1 4 3 -2 6 -13 5 -11 0 -14 -3 -6 -6z"/>
<path d="M3748 2943 c17 -2 47 -2 65 0 17 2 3 4 -33 4 -36 0 -50 -2 -32 -4z"/>
<path d="M3538 2933 c12 -2 32 -2 45 0 12 2 2 4 -23 4 -25 0 -35 -2 -22 -4z"/>
<path d="M3333 2923 c20 -2 54 -2 75 0 20 2 3 4 -38 4 -41 0 -58 -2 -37 -4z"/>
<path d="M3515 2910 c-9 -14 17 -22 52 -17 23 3 21 4 -10 6 -23 0 -36 5 -32
11 3 6 4 10 1 10 -3 0 -8 -5 -11 -10z"/>
<path d="M3573 2913 c20 -2 54 -2 75 0 20 2 3 4 -38 4 -41 0 -58 -2 -37 -4z"/>
<path d="M3318 2903 c23 -2 61 -2 85 0 23 2 4 4 -43 4 -47 0 -66 -2 -42 -4z"/>
<path d="M3313 2873 c9 -2 25 -2 35 0 9 3 1 5 -18 5 -19 0 -27 -2 -17 -5z"/>
<path d="M3803 2873 c26 -2 67 -2 90 0 23 2 2 3 -48 3 -49 0 -68 -1 -42 -3z"/>
<path d="M2258 2833 c12 -2 32 -2 45 0 12 2 2 4 -23 4 -25 0 -35 -2 -22 -4z"/>
<path d="M3151 2814 c0 -11 3 -14 6 -6 3 7 2 16 -1 19 -3 4 -6 -2 -5 -13z"/>
<path d="M2178 2793 c7 -3 16 -2 19 1 4 3 -2 6 -13 5 -11 0 -14 -3 -6 -6z"/>
<path d="M2245 2790 c4 -6 11 -8 16 -5 14 9 11 15 -7 15 -8 0 -12 -5 -9 -10z"/>
<path d="M2160 2770 c0 -5 5 -10 11 -10 5 0 7 5 4 10 -3 6 -8 10 -11 10 -2 0
-4 -4 -4 -10z"/>
<path d="M2338 2743 c12 -2 32 -2 45 0 12 2 2 4 -23 4 -25 0 -35 -2 -22 -4z"/>
<path d="M2178 2713 c7 -3 16 -2 19 1 4 3 -2 6 -13 5 -11 0 -14 -3 -6 -6z"/>
<path d="M2317 2709 c7 -7 15 -10 18 -7 3 3 -2 9 -12 12 -14 6 -15 5 -6 -5z"/>
<path d="M2378 2713 c7 -3 16 -2 19 1 4 3 -2 6 -13 5 -11 0 -14 -3 -6 -6z"/>
<path d="M2755 2699 c-30 -7 -30 -7 7 -8 20 0 39 3 42 7 6 10 -8 10 -49 1z"/>
<path d="M2193 2693 c9 -2 23 -2 30 0 6 3 -1 5 -18 5 -16 0 -22 -2 -12 -5z"/>
<path d="M2368 2693 c7 -3 16 -2 19 1 4 3 -2 6 -13 5 -11 0 -14 -3 -6 -6z"/>
<path d="M2413 2693 c9 -2 23 -2 30 0 6 3 -1 5 -18 5 -16 0 -22 -2 -12 -5z"/>
<path d="M2578 2693 c7 -3 16 -2 19 1 4 3 -2 6 -13 5 -11 0 -14 -3 -6 -6z"/>
<path d="M2698 2693 c7 -3 16 -2 19 1 4 3 -2 6 -13 5 -11 0 -14 -3 -6 -6z"/>
<path d="M5803 6660 c0 -36 2 -50 4 -32 2 17 2 47 0 65 -2 17 -4 3 -4 -33z"/>
<path d="M5823 6680 c0 -25 2 -35 4 -22 2 12 2 32 0 45 -2 12 -4 2 -4 -23z"/>
<path d="M5800 6570 c0 -5 5 -10 10 -10 6 0 10 -10 10 -22 1 -21 2 -21 11 -5
7 13 6 21 -5 32 -17 17 -26 19 -26 5z"/>
<path d="M5892 6273 c-15 -6 -6 -23 14 -23 8 0 14 7 14 15 0 15 -6 17 -28 8z"/>
<path d="M5848 6233 c7 -3 16 -2 19 1 4 3 -2 6 -13 5 -11 0 -14 -3 -6 -6z"/>
<path d="M5920 6040 c0 -5 5 -10 10 -10 6 0 10 5 10 10 0 6 -4 10 -10 10 -5 0
-10 -4 -10 -10z"/>
<path d="M2770 6613 c0 -12 5 -25 10 -28 13 -8 13 15 0 35 -8 12 -10 11 -10
-7z"/>
<path d="M2778 5593 c7 -3 16 -2 19 1 4 3 -2 6 -13 5 -11 0 -14 -3 -6 -6z"/>
<path d="M5677 5579 c7 -7 15 -10 18 -7 3 3 -2 9 -12 12 -14 6 -15 5 -6 -5z"/>
<path d="M5793 5583 c9 -2 23 -2 30 0 6 3 -1 5 -18 5 -16 0 -22 -2 -12 -5z"/>
<path d="M5718 5543 c6 -2 18 -2 25 0 6 3 1 5 -13 5 -14 0 -19 -2 -12 -5z"/>
<path d="M5718 5523 c6 -2 18 -2 25 0 6 3 1 5 -13 5 -14 0 -19 -2 -12 -5z"/>
<path d="M5778 5523 c7 -3 16 -2 19 1 4 3 -2 6 -13 5 -11 0 -14 -3 -6 -6z"/>
<path d="M9415 4300 c-3 -6 1 -7 9 -4 18 7 21 14 7 14 -6 0 -13 -4 -16 -10z"/>
<path d="M9418 4233 c7 -3 16 -2 19 1 4 3 -2 6 -13 5 -11 0 -14 -3 -6 -6z"/>
<path d="M9410 4210 c-8 -5 -10 -10 -5 -10 6 0 17 5 25 10 8 5 11 10 5 10 -5
0 -17 -5 -25 -10z"/>
<path d="M9458 4083 c7 -3 16 -2 19 1 4 3 -2 6 -13 5 -11 0 -14 -3 -6 -6z"/>
<path d="M9481 4036 c-21 -12 -21 -14 -6 -20 10 -3 20 -4 23 -1 3 3 -1 5 -9 5
-8 1 -3 7 11 15 14 8 21 14 15 14 -5 0 -21 -6 -34 -13z"/>
<path d="M9372 3850 c0 -14 2 -19 5 -12 2 6 2 18 0 25 -3 6 -5 1 -5 -13z"/>
<path d="M10158 3863 c6 -2 18 -2 25 0 6 3 1 5 -13 5 -14 0 -19 -2 -12 -5z"/>
<path d="M9963 3793 c9 -2 23 -2 30 0 6 3 -1 5 -18 5 -16 0 -22 -2 -12 -5z"/>
<path d="M2663 3875 c0 -22 2 -30 4 -17 2 12 2 30 0 40 -3 9 -5 -1 -4 -23z"/>
<path d="M1798 2503 c17 -2 47 -2 65 0 17 2 3 4 -33 4 -36 0 -50 -2 -32 -4z"/>
<path d="M1783 2483 c9 -2 23 -2 30 0 6 3 -1 5 -18 5 -16 0 -22 -2 -12 -5z"/>
<path d="M1685 2440 c-3 -6 1 -7 9 -4 18 7 21 14 7 14 -6 0 -13 -4 -16 -10z"/>
<path d="M1170 2350 c0 -5 7 -10 15 -10 8 0 15 5 15 10 0 6 -7 10 -15 10 -8 0
-15 -4 -15 -10z"/>
<path d="M1388 2273 c7 -3 16 -2 19 1 4 3 -2 6 -13 5 -11 0 -14 -3 -6 -6z"/>
<path d="M1498 2163 c7 -3 16 -2 19 1 4 3 -2 6 -13 5 -11 0 -14 -3 -6 -6z"/>
<path d="M3098 10233 c-2 -5 -1 -80 2 -168 l6 -160 2 168 c2 151 0 182 -10
160z"/>
<path d="M3101 9864 c0 -11 3 -14 6 -6 3 7 2 16 -1 19 -3 4 -6 -2 -5 -13z"/>
<path d="M10056 9763 c-6 -14 -5 -15 5 -6 7 7 10 15 7 18 -3 3 -9 -2 -12 -12z"/>
<path d="M10035 9549 c-4 -6 -5 -12 -2 -15 2 -3 7 2 10 11 7 17 1 20 -8 4z"/>
<path d="M10079 9504 c-10 -12 -10 -18 2 -30 13 -13 18 -11 40 13 13 16 20 25
15 21 -5 -4 -17 -3 -26 2 -13 7 -22 5 -31 -6z m34 -7 c7 4 6 -1 -2 -11 -16
-19 -38 -6 -25 15 6 10 9 10 12 1 2 -7 9 -9 15 -5z"/>
<path d="M10150 9495 c-6 -8 -8 -20 -4 -26 4 -8 3 -9 -4 -5 -7 4 -22 0 -34 -8
-12 -9 -20 -16 -18 -17 3 0 13 -2 23 -4 15 -3 67 50 67 68 0 12 -17 7 -30 -8z"/>
<path d="M10060 9419 c0 -5 5 -7 10 -4 6 3 10 8 10 11 0 2 -4 4 -10 4 -5 0
-10 -5 -10 -11z"/>
<path d="M3175 8940 c-3 -5 -1 -10 4 -10 6 0 11 5 11 10 0 6 -2 10 -4 10 -3 0
-8 -4 -11 -10z"/>
<path d="M3175 8750 c3 -5 8 -10 11 -10 2 0 4 5 4 10 0 6 -5 10 -11 10 -5 0
-7 -4 -4 -10z"/>
</g>
</svg>
